<svg width="53" height="33" viewBox="0 0 53 33" fill="none" xmlns="http://www.w3.org/2000/svg">
<path d="M8.91916 20.3801C8.88129 21.9795 7.83986 21.9795 6.74163 21.9607C4.9996 21.9231 3.2765 21.9607 1.53447 21.9419C0.360499 21.9419 0.000732422 21.5656 0.000732422 20.4366C0.000732422 14.0955 0.000732422 7.77321 0.000732422 1.43211C-0.0182027 0.43485 0.360499 -0.0355574 1.19364 0.0020752C4.37474 0.190238 7.55584 0.453667 10.6233 1.37567C11.0399 1.50738 11.4565 1.67673 11.8541 1.84607C13.0091 2.27885 13.4825 3.06913 13.1228 4.38627C14.4293 4.38627 15.5843 4.38627 16.7394 4.38627C17.9701 4.38627 19.2009 4.34864 20.4317 4.40509C21.4163 4.46154 22.2305 4.23574 23.0637 3.65244C25.3738 2.01542 27.8921 2.01542 30.4484 3.0315C32.8152 3.97232 35.1632 4.96958 37.6248 5.98566C37.4733 5.04484 37.9277 4.59325 38.6473 4.31101C42.9077 2.73044 47.3385 2.24122 51.8261 2.20358C52.7539 2.20358 53.0001 2.86215 53.0001 3.69007C52.9811 6.94529 53.0001 10.2193 53.0001 13.4745C53.0001 16.5228 53.0001 19.5522 53.0001 22.6005C53.0001 23.8235 52.6592 24.1434 51.4095 24.1434C49.8379 24.1434 48.2474 24.1058 46.6757 24.1622C45.3313 24.1998 44.0816 24.1998 43.8923 22.4499C42.813 22.9203 42.1313 23.4284 42.1124 24.7455C42.0934 26.2132 40.6733 27.3986 39.1206 27.7373C38.7419 27.8126 38.3443 28.0572 38.1171 28.3582C37.1703 29.5625 35.9395 30.0893 34.4437 30.1834C34.1218 30.2022 33.7052 30.4092 33.4969 30.6538C32.4366 31.9333 31.1868 32.6484 29.4637 32.3285C29.2555 32.2909 28.9904 32.2532 28.8199 32.3473C26.4531 33.5704 24.2566 32.8365 22.3441 31.4629C17.8187 28.1889 13.2174 24.9525 9.41147 20.7941C9.29786 20.6624 9.16532 20.5683 8.91916 20.3801ZM31.8874 28.8098C31.6981 28.6781 31.4519 28.5464 31.2436 28.3582C29.7667 26.8529 28.2898 25.3476 26.8318 23.8423C26.3394 23.3155 26.3584 22.751 26.8696 22.2618C27.343 21.8102 27.9111 21.8666 28.4034 22.2994C28.6306 22.5064 28.8389 22.751 29.0661 22.9768C30.6188 24.5009 32.1336 26.0438 33.7241 27.5115C34.3869 28.1324 35.2389 28.0384 35.9585 27.4739C36.375 27.1352 36.5076 26.8341 36.0342 26.4202C35.5608 26.025 35.1064 25.5546 34.6709 25.1218C33.194 23.6165 31.717 22.1112 30.259 20.6059C29.7667 20.0979 29.672 19.5146 30.1833 19.0254C30.6756 18.5361 31.2626 18.5738 31.7928 19.0442C32.001 19.2323 32.1904 19.4393 32.3987 19.6463C34.1786 21.4338 35.9395 23.2026 37.7194 25.0089C38.2496 25.5546 38.8177 25.7428 39.4804 25.2536C40.1431 24.7643 40.2946 24.0869 39.8402 23.4472C39.2721 22.6381 38.6662 21.7914 37.9088 21.1516C34.5005 18.2539 31.13 15.4314 27.7406 12.609C27.5892 12.4773 27.3051 12.2891 27.1915 12.3268C26.2637 12.7219 25.1844 13.0041 24.4838 13.6627C22.7228 15.3185 20.8104 16.0336 18.4624 15.2809C17.137 14.8858 16.4553 13.9261 16.4553 12.5526C16.4553 10.9343 17.2127 9.59839 18.0837 8.31888C18.4624 7.77321 18.879 7.24635 19.3903 6.56896C17.2317 6.56896 15.2435 6.55015 13.2742 6.58778C13.0659 6.58778 12.7251 6.94529 12.6494 7.1899C11.7216 10.5768 10.8316 13.9638 9.96059 17.3507C9.88485 17.6706 9.99846 18.1598 10.2067 18.4044C14.1452 22.8263 18.9548 26.232 23.6885 29.713C24.5595 30.3528 25.582 30.7103 26.8318 30.5033C26.6045 30.127 26.2258 29.9576 25.9418 29.6754C24.8057 28.5464 23.7075 27.3798 22.5903 26.232C22.5335 26.1567 22.4578 26.1003 22.4009 26.025C21.9465 25.4794 21.9654 24.9149 22.4767 24.4256C23.0069 23.9176 23.556 24.0493 24.0483 24.5385C25.7335 26.232 27.3809 27.9631 29.1229 29.5813C30.2022 30.5974 31.13 30.3151 31.8874 28.8098ZM43.2295 20.1355C41.9041 16.5228 40.6165 13.0041 39.2911 9.48549C39.1774 9.16562 38.9123 8.78929 38.6283 8.65757C35.4851 7.37807 32.3419 6.09856 29.1608 4.89431C27.3241 4.19811 25.5442 4.44272 23.9726 5.64697C22.9122 6.47488 21.814 7.32162 20.9619 8.3377C20.0719 9.41023 19.3713 10.6521 18.7843 11.9128C18.3678 12.7783 18.7086 13.1359 19.6554 13.3617C20.6968 13.5874 21.7003 13.3617 22.3441 12.5714C23.2341 11.4612 24.3134 10.8026 25.6957 10.558C25.7525 10.5392 25.8093 10.5204 25.8661 10.4828C27.1726 9.67366 28.3276 9.69247 29.3123 11.0284C29.5395 11.3295 29.8803 11.5365 30.1643 11.7811C33.8756 14.9799 37.9656 17.727 41.2414 21.4903C41.8662 21.0387 42.4911 20.6247 43.2295 20.1355ZM40.2757 6.06093C40.7112 7.09582 41.1278 7.999 41.4686 8.93982C42.9266 13.0041 44.3657 17.0685 45.8426 21.1328C45.9562 21.4338 46.2402 21.8854 46.4674 21.9043C47.8686 21.9795 49.2888 21.9419 50.7278 21.9419C50.7278 16.0712 50.7278 10.2946 50.7278 4.44272C47.1491 4.51799 43.7219 4.95076 40.2757 6.06093ZM2.29188 2.27885C2.29188 8.14954 2.29188 13.9073 2.29188 19.7404C3.63627 19.7404 4.88599 19.7027 6.15464 19.7592C6.74163 19.778 6.96885 19.5522 7.12033 19.0065C7.93454 16.1088 8.82449 13.2488 9.60083 10.351C10.1689 8.20598 10.5665 6.04211 11.0588 3.82178C8.12389 2.78689 5.24575 2.50464 2.29188 2.27885Z" fill="#003459"/>
<path d="M29.2103 29.5284L29.2112 29.5292C29.7295 30.0167 30.1909 30.1691 30.601 30.0493C31.0043 29.9316 31.395 29.5415 31.7588 28.8451C31.7038 28.8092 31.6443 28.7723 31.5799 28.7323C31.5575 28.7185 31.5346 28.7043 31.5111 28.6896C31.3897 28.6139 31.2548 28.5278 31.1098 28.4221L31.1034 28.4174L31.0978 28.4118C29.6206 26.925 28.1431 25.4192 26.6846 23.8945L26.6838 23.8937C26.4253 23.617 26.2915 23.3199 26.2995 23.0184C26.3075 22.7167 26.4568 22.4298 26.7256 22.1726L26.7271 22.1711L26.7271 22.1711C26.9893 21.9307 27.2747 21.8189 27.5661 21.8321C27.8552 21.8452 28.1361 21.9804 28.3936 22.2066C28.3939 22.2068 28.3942 22.2071 28.3945 22.2074L28.3284 22.2825C28.4819 22.4115 28.6133 22.5552 28.7456 22.6998C28.8255 22.7872 28.9056 22.8748 28.9912 22.9599L29.2103 29.5284ZM29.2103 29.5284C27.9412 28.3621 26.7418 27.138 25.5382 25.9095C25.074 25.4357 24.6091 24.9612 24.1394 24.4892C23.8844 24.2261 23.6039 24.0539 23.307 24.0223C23.006 23.9903 22.7083 24.1048 22.4273 24.3741C22.158 24.6318 22.0142 24.9138 22.0036 25.2143C21.9931 25.513 22.1147 25.8127 22.3412 26.1064M29.2103 29.5284L29.0612 22.8884C29.6272 23.4372 30.1874 23.9902 30.7477 24.5432C31.7269 25.5097 32.7063 26.4765 33.7175 27.4215L33.7176 27.4216C34.0297 27.7141 34.3871 27.8357 34.7479 27.8204C35.1107 27.805 35.4837 27.6507 35.8208 27.3791L35.8222 27.378L35.8222 27.378C36.039 27.2094 36.1509 27.0705 36.1705 26.9431C36.1884 26.8268 36.1328 26.68 35.8958 26.4805C35.3989 26.0816 34.96 25.6264 34.5262 25.1766L34.5246 25.1749C33.786 24.4222 33.0521 23.6694 32.3184 22.9168C31.5847 22.1641 30.851 21.4116 30.1127 20.659L30.1122 20.6585C29.8649 20.4029 29.7081 20.1141 29.6844 19.8136C29.6605 19.5101 29.7737 19.2101 30.0365 18.9388L30.0379 18.9375C30.2998 18.6772 30.5949 18.5501 30.9015 18.558C31.206 18.5658 31.507 18.7065 31.7842 18.9524L31.7849 18.953C31.9252 19.0799 32.059 19.217 32.193 19.3542C32.2597 19.4227 32.3265 19.4912 32.3942 19.5584L32.3946 19.5588L32.3949 19.5591C34.1743 21.3462 35.954 23.1335 37.7147 24.9208C37.9835 25.1784 38.2408 25.3462 38.5016 25.3972C38.7572 25.4472 39.0323 25.3878 39.3461 25.1562C39.6637 24.9217 39.8488 24.6542 39.9064 24.3766C39.9636 24.1006 39.898 23.7989 39.6832 23.4874C39.1142 22.677 38.5153 21.8411 37.7693 21.2111L37.7687 21.2106C34.9593 18.7994 32.1095 16.4151 29.2642 14.0345C28.7349 13.5917 28.2059 13.149 27.6773 12.7064L27.6707 12.7009L27.671 12.7006C27.6 12.6301 27.5026 12.5512 27.4098 12.4975C27.3633 12.4707 27.3215 12.4523 27.2873 12.4433C27.2517 12.4339 27.2356 12.4377 27.2315 12.4395C27.0007 12.5378 26.7609 12.629 26.522 12.7199L26.5119 12.7237C26.269 12.8162 26.0271 12.9084 25.7926 13.0086C25.3229 13.2093 24.8906 13.439 24.5531 13.7563C23.6649 14.5915 22.7331 15.1897 21.7221 15.4846C20.7097 15.7799 19.6245 15.7693 18.4335 15.3971C17.754 15.1849 17.2326 14.8304 16.8817 14.3466C16.5309 13.863 16.3561 13.258 16.3561 12.5544C16.3561 10.9045 17.1286 9.54743 18.0204 8.28384C18.2671 7.89708 18.5507 7.53423 18.8662 7.13053C18.9764 6.98947 19.0905 6.84341 19.2084 6.68961C18.7293 6.68937 18.2595 6.6883 17.7966 6.68725C16.2499 6.68375 14.7801 6.68042 13.2995 6.7084C13.2641 6.71197 13.2175 6.7287 13.1628 6.76171C13.1077 6.79497 13.05 6.84136 12.9952 6.8958C12.8843 7.00605 12.7969 7.13758 12.7651 7.23877C11.8375 10.606 10.929 13.9915 10.0774 17.3957L10.0763 17.3998L10.0762 17.3998C10.0357 17.5369 10.0421 17.7199 10.0869 17.9027C10.1316 18.0845 10.2108 18.2521 10.3019 18.3595C13.9444 22.4487 18.3339 25.6677 22.7278 28.89C23.0745 29.1442 23.4212 29.3985 23.7675 29.6532C24.581 30.2507 25.5256 30.5782 26.671 30.4471C26.5823 30.3415 26.4778 30.2499 26.3653 30.1599C26.3263 30.1286 26.2859 30.0972 26.2448 30.0654C26.1253 29.9726 26.0005 29.8758 25.8911 29.767C25.1329 29.0136 24.391 28.2428 23.6499 27.4729C23.2798 27.0885 22.9099 26.7042 22.5384 26.3225L22.5296 26.3134L22.5302 26.3129C22.5068 26.2819 22.4788 26.2539 22.4449 26.2201L22.4429 26.2182C22.4111 26.1866 22.3739 26.1496 22.3412 26.1064M22.3412 26.1064C22.3411 26.1063 22.341 26.1061 22.3409 26.106L22.4207 26.0457L22.3415 26.1068C22.3414 26.1067 22.3413 26.1066 22.3412 26.1064Z" fill="white" stroke="#003459" stroke-width="0.2"/>
<path d="M29.2944 11.0117C28.3098 9.67579 27.1547 9.65697 25.8482 10.4661M29.2944 11.0117C29.4513 11.2196 29.6623 11.3826 29.8715 11.5442C29.9652 11.6166 30.0586 11.6887 30.1465 11.7644C31.3008 12.7593 32.4917 13.7123 33.6833 14.6659C36.3231 16.7784 38.9666 18.8938 41.2235 21.4736M29.2944 11.0117L29.3749 10.9524C29.3748 10.9522 29.3746 10.9521 29.3745 10.9519C29.3744 10.9518 29.3743 10.9516 29.3742 10.9515L29.2944 11.0117ZM25.8482 10.4661L41.2235 21.4736M25.8482 10.4661C25.7914 10.5037 25.7346 10.5413 25.6778 10.5413L25.8482 10.4661ZM41.2235 21.4736L41.2988 21.4078C41.2794 21.3857 41.2601 21.3636 41.2407 21.3416C41.2164 21.3579 41.1921 21.3742 41.1677 21.3906L41.2235 21.4736ZM43.1095 20.0979C43.1186 20.1226 43.1277 20.1474 43.1367 20.1721L43.2306 20.1377L43.1754 20.0543C43.1533 20.0689 43.1314 20.0834 43.1095 20.0979ZM21.0211 8.38466C21.0213 8.38446 21.0215 8.38426 21.0216 8.38406L20.944 8.32102L21.0206 8.38527C21.0208 8.38507 21.021 8.38486 21.0211 8.38466ZM18.8571 11.9383C18.8572 11.9381 18.8573 11.9379 18.8574 11.9377C18.8575 11.9375 18.8576 11.9373 18.8577 11.9371L18.7665 11.8961L18.8571 11.9383ZM19.6588 13.2473C19.6588 13.2473 19.6587 13.2473 19.6587 13.2472L19.6375 13.345L19.6588 13.2473Z" fill="white" stroke="#003459" stroke-width="0.2"/>
<path d="M41.5624 8.88911L41.5625 8.8891L41.5615 8.88653C41.3809 8.42384 41.1862 7.96618 40.9851 7.49585C40.971 7.4629 40.9569 7.42989 40.9427 7.39681C40.7678 6.98787 40.5883 6.56832 40.4085 6.12519C43.7759 5.05353 47.146 4.62704 50.6276 4.52855V4.52864V4.56292V4.5972V4.63148V4.66576V4.70003V4.73431V4.76858V4.80285V4.83712V4.87139V4.90565V4.93992V4.97418V5.00844V5.0427V5.07696V5.11121V5.14547V5.17972V5.21397V5.24822V5.28247V5.31672V5.35096V5.38521V5.41945V5.45369V5.48793V5.52217V5.5564V5.59064V5.62487V5.6591V5.69333V5.72756V5.76179V5.79602V5.83024V5.86446V5.89869V5.93291V5.96713V6.00134V6.03556V6.06977V6.10399V6.1382V6.17241V6.20662V6.24083V6.27504V6.30924V6.34345V6.37765V6.41185V6.44605V6.48025V6.51445V6.54865V6.58284V6.61704V6.65123V6.68542V6.71961V6.7538V6.78799V6.82217V6.85636V6.89054V6.92473V6.95891V6.99309V7.02727V7.06145V7.09563V7.1298V7.16398V7.19815V7.23233V7.2665V7.30067V7.33484V7.36901V7.40318V7.43734V7.47151V7.50567V7.53983V7.574V7.60816V7.64232V7.67648V7.71064V7.74479V7.77895V7.81311V7.84726V7.88141V7.91557V7.94972V7.98387V8.01802V8.05217V8.08631V8.12046V8.15461V8.18875V8.2229V8.25704V8.29118V8.32532V8.35946V8.3936V8.42774V8.46188V8.49602V8.53015V8.56429V8.59843V8.63256V8.66669V8.70083V8.73496V8.76909V8.80322V8.83735V8.87148V8.9056V8.93973V8.97386V9.00798V9.04211V9.07623V9.11036V9.14448V9.1786V9.21272V9.24684V9.28096V9.31508V9.3492V9.38332V9.41744V9.45156V9.48567V9.51979V9.55391V9.58802V9.62213V9.65625V9.69036V9.72447V9.75858V9.7927V9.82681V9.86092V9.89503V9.92914V9.96325V9.99735V10.0315V10.0656V10.0997V10.1338V10.1679V10.202V10.2361V10.2702V10.3043V10.3384V10.3725V10.4066V10.4407V10.4748V10.5089V10.543V10.5771V10.6112V10.6453V10.6794V10.7135V10.7476V10.7817V10.8158V10.8499V10.884V10.9181V10.9522V10.9863V11.0204V11.0545V11.0886V11.1227V11.1568V11.1909V11.225V11.2591V11.2932V11.3273V11.3614V11.3955V11.4296V11.4636V11.4977V11.5318V11.5659V11.6V11.6341V11.6682V11.7023V11.7364V11.7705V11.8046V11.8387V11.8728V11.9069V11.941V11.975V12.0091V12.0432V12.0773V12.1114V12.1455V12.1796V12.2137V12.2478V12.2819V12.316V12.3501V12.3842V12.4182V12.4523V12.4864V12.5205V12.5546V12.5887V12.6228V12.6569V12.691V12.7251V12.7592V12.7933V12.8274V12.8615V12.8955V12.9296V12.9637V12.9978V13.0319V13.066V13.1001V13.1342V13.1683V13.2024V13.2365V13.2706V13.3047V13.3388V13.3729V13.407V13.4411V13.4752V13.5093V13.5434V13.5775V13.6116V13.6457V13.6798V13.7139V13.748V13.7821V13.8162V13.8503V13.8844V13.9185V13.9526V13.9867V14.0208V14.0549V14.089V14.1231V14.1572V14.1913V14.2254V14.2595V14.2936V14.3277V14.3618V14.3959V14.43V14.4642V14.4983V14.5324V14.5665V14.6006V14.6347V14.6688V14.7029V14.737V14.7712V14.8053V14.8394V14.8735V14.9076V14.9417V14.9759V15.01V15.0441V15.0782V15.1123V15.1464V15.1806V15.2147V15.2488V15.2829V15.3171V15.3512V15.3853V15.4194V15.4536V15.4877V15.5218V15.5559V15.5901V15.6242V15.6583V15.6925V15.7266V15.7607V15.7949V15.829V15.8631V15.8973V15.9314V15.9655V15.9997V16.0338V16.068V16.1021V16.1362V16.1704V16.2045V16.2387V16.2728V16.307V16.3411V16.3753V16.4094V16.4436V16.4777V16.5119V16.546V16.5802V16.6143V16.6485V16.6826V16.7168V16.751V16.7851V16.8193V16.8535V16.8876V16.9218V16.9559V16.9901V17.0243V17.0584V17.0926V17.1268V17.161V17.1951V17.2293V17.2635V17.2977V17.3318V17.366V17.4002V17.4344V17.4686V17.5027V17.5369V17.5711V17.6053V17.6395V17.6737V17.7079V17.7421V17.7762V17.8104V17.8446V17.8788V17.913V17.9472V17.9814V18.0156V18.0498V18.084V18.1182V18.1525V18.1867V18.2209V18.2551V18.2893V18.3235V18.3577V18.3919V18.4262V18.4604V18.4946V18.5288V18.563V18.5973V18.6315V18.6657V18.6999V18.7342V18.7684V18.8026V18.8369V18.8711V18.9053V18.9396V18.9738V19.0081V19.0423V19.0766V19.1108V19.1451V19.1793V19.2136V19.2478V19.2821V19.3163V19.3506V19.3848V19.4191V19.4534V19.4876V19.5219V19.5562V19.5904V19.6247V19.659V19.6932V19.7275V19.7618V19.7961V19.8304V19.8646V19.8989V19.9332V19.9675V20.0018V20.0361V20.0704V20.1047V20.139V20.1733V20.2076V20.2419V20.2762V20.3105V20.3448V20.3791V20.4134V20.4477V20.482V20.5163V20.5506V20.585V20.6193V20.6536V20.6879V20.7223V20.7566V20.7909V20.8253V20.8596V20.8939V20.9283V20.9626V20.9969V21.0313V21.0656V21.1V21.1343V21.1687V21.203V21.2374V21.2718V21.3061V21.3405V21.3748V21.4092V21.4436V21.4779V21.5123V21.5467V21.5811V21.6154V21.6498V21.6842V21.7186V21.753V21.7874V21.8218V21.825C50.2929 21.8254 49.9615 21.8276 49.6328 21.8297C48.5621 21.8367 47.5187 21.8436 46.4743 21.7875C46.4469 21.7849 46.4061 21.7675 46.3532 21.724C46.3012 21.6812 46.2463 21.6203 46.1924 21.5478C46.0847 21.4028 45.9897 21.2231 45.9361 21.0811C44.9516 18.372 43.9841 15.6632 43.0164 12.954C42.5325 11.5992 42.0485 10.2442 41.5624 8.88911Z" fill="white" stroke="#003459" stroke-width="0.2"/>
<path d="M9.50525 10.3274L9.50516 10.3277C9.03293 12.1344 8.50237 13.9317 7.97209 15.728C7.65206 16.8122 7.33213 17.896 7.02519 18.9812L7.02506 18.9817C6.95101 19.2485 6.86335 19.4167 6.73847 19.5191C6.61579 19.6198 6.44047 19.6702 6.15893 19.6612L6.15874 19.6612C5.22327 19.633 4.27667 19.6364 3.29774 19.6399C2.99935 19.641 2.69796 19.6421 2.39297 19.6423V19.6398V19.6056V19.5714V19.5373V19.5031V19.4689V19.4348V19.4006V19.3664V19.3323V19.2981V19.264V19.2298V19.1957V19.1615V19.1274V19.0932V19.0591V19.0249V18.9908V18.9566V18.9225V18.8884V18.8542V18.8201V18.7859V18.7518V18.7177V18.6836V18.6494V18.6153V18.5812V18.5471V18.5129V18.4788V18.4447V18.4106V18.3765V18.3423V18.3082V18.2741V18.24V18.2059V18.1718V18.1377V18.1036V18.0695V18.0354V18.0013V17.9672V17.9331V17.899V17.8649V17.8308V17.7967V17.7626V17.7285V17.6944V17.6603V17.6262V17.5921V17.5581V17.524V17.4899V17.4558V17.4217V17.3876V17.3536V17.3195V17.2854V17.2513V17.2173V17.1832V17.1491V17.115V17.081V17.0469V17.0128V16.9788V16.9447V16.9106V16.8766V16.8425V16.8085V16.7744V16.7403V16.7063V16.6722V16.6382V16.6041V16.5701V16.536V16.5019V16.4679V16.4338V16.3998V16.3657V16.3317V16.2976V16.2636V16.2296V16.1955V16.1615V16.1274V16.0934V16.0593V16.0253V15.9913V15.9572V15.9232V15.8891V15.8551V15.8211V15.787V15.753V15.719V15.6849V15.6509V15.6169V15.5828V15.5488V15.5148V15.4808V15.4467V15.4127V15.3787V15.3446V15.3106V15.2766V15.2426V15.2085V15.1745V15.1405V15.1065V15.0725V15.0384V15.0044V14.9704V14.9364V14.9024V14.8683V14.8343V14.8003V14.7663V14.7323V14.6983V14.6642V14.6302V14.5962V14.5622V14.5282V14.4942V14.4602V14.4262V14.3921V14.3581V14.3241V14.2901V14.2561V14.2221V14.1881V14.1541V14.1201V14.0861V14.052V14.018V13.984V13.95V13.916V13.882V13.848V13.814V13.78V13.746V13.712V13.678V13.644V13.61V13.576V13.542V13.508V13.474V13.44V13.406V13.3719V13.3379V13.3039V13.2699V13.2359V13.2019V13.1679V13.1339V13.0999V13.0659V13.0319V12.9979V12.9639V12.9299V12.8959V12.8619V12.8279V12.7939V12.7599V12.7259V12.6919V12.6579V12.6239V12.5899V12.5559V12.5219V12.4879V12.4539V12.4199V12.3859V12.3519V12.3179V12.2839V12.2499V12.2159V12.1819V12.1479V12.1139V12.0799V12.0459V12.0119V11.9779V11.9439V11.9098V11.8758V11.8418V11.8078V11.7738V11.7398V11.7058V11.6718V11.6378V11.6038V11.5698V11.5358V11.5018V11.4678V11.4338V11.3998V11.3657V11.3317V11.2977V11.2637V11.2297V11.1957V11.1617V11.1277V11.0937V11.0597V11.0256V10.9916V10.9576V10.9236V10.8896V10.8556V10.8216V10.7875V10.7535V10.7195V10.6855V10.6515V10.6175V10.5834V10.5494V10.5154V10.4814V10.4474V10.4133V10.3793V10.3453V10.3113V10.2772V10.2432V10.2092V10.1752V10.1411V10.1071V10.0731V10.0391V10.005V9.971V9.93697V9.90294V9.8689V9.83487V9.80084V9.7668V9.73277V9.69873V9.6647V9.63066V9.59662V9.56258V9.52854V9.4945V9.46046V9.42642V9.39238V9.35834V9.32429V9.29025V9.2562V9.22215V9.18811V9.15406V9.12001V9.08596V9.05191V9.01785V8.9838V8.94975V8.91569V8.88163V8.84758V8.81352V8.77946V8.7454V8.71134V8.67728V8.64322V8.60915V8.57509V8.54102V8.50695V8.47289V8.43882V8.40475V8.37067V8.3366V8.30253V8.26845V8.23438V8.2003V8.16622V8.13214V8.09806V8.06398V8.0299V7.99582V7.96173V7.92765V7.89356V7.85947V7.82538V7.79129V7.7572V7.7231V7.68901V7.65491V7.62082V7.58672V7.55262V7.51852V7.48441V7.45031V7.41621V7.3821V7.34799V7.31388V7.27977V7.24566V7.21155V7.17743V7.14332V7.1092V7.07508V7.04096V7.00684V6.97272V6.93859V6.90447V6.87034V6.83621V6.80208V6.76795V6.73382V6.69968V6.66555V6.63141V6.59727V6.56313V6.52899V6.49485V6.4607V6.42655V6.39241V6.35826V6.3241V6.28995V6.2558V6.22164V6.18748V6.15332V6.11916V6.085V6.05084V6.01667V5.9825V5.94833V5.91416V5.87999V5.84581V5.81164V5.77746V5.74328V5.7091V5.67492V5.64073V5.60654V5.57236V5.53817V5.50397V5.46978V5.43558V5.40139V5.36719V5.33299V5.29878V5.26458V5.23037V5.19616V5.16195V5.12774V5.09353V5.05931V5.02509V4.99088V4.95665V4.92243V4.8882V4.85398V4.81975V4.78552V4.75128V4.71705V4.68281V4.64857V4.61433V4.58009V4.54584V4.51159V4.47734V4.44309V4.40884V4.37458V4.34033V4.30607V4.27181V4.23754V4.20328V4.16901V4.13474V4.10046V4.06619V4.03191V3.99763V3.96335V3.92907V3.89479V3.8605V3.82621V3.79192V3.75762V3.72333V3.68903V3.65473V3.62042V3.58612V3.55181V3.5175V3.48319V3.44887V3.41456V3.38024V3.34592V3.31159V3.27727V3.24294V3.20861V3.17428V3.13994V3.1056V3.07126V3.03692V3.00257V2.96823V2.93388V2.89953V2.86517V2.83081V2.79645V2.76209V2.72773V2.69336V2.65899V2.62462V2.59025V2.55587V2.52149V2.48711V2.45272V2.41834V2.38879C5.26177 2.61146 8.08552 2.91307 10.9428 3.88919C10.7835 4.60508 10.6341 5.31766 10.4853 6.02688C10.1818 7.47447 9.8811 8.90808 9.50525 10.3274Z" fill="white" stroke="#003459" stroke-width="0.2"/>
</svg>
