<svg width="40" height="45" viewBox="0 0 40 45" fill="none" xmlns="http://www.w3.org/2000/svg">
<path d="M19.9424 42.8008C15.4187 42.7162 10.8951 42.3776 6.64847 40.7693C2.95571 39.3302 1.3863 36.8754 2.21716 33.2355C2.95571 30.1882 4.24818 27.3948 6.55615 25.1092C9.04875 22.6544 11.2644 20.4536 15.5111 22.9084C18.6499 24.686 22.6196 24.2628 25.7585 22.4851C27.9741 21.2154 29.3589 21.8079 31.0206 22.993C31.7592 23.5009 32.4054 24.0935 33.0516 24.7706C36.4674 28.2412 39.0524 32.389 37.5753 36.9601C36.0058 41.5311 30.6513 41.6157 26.3124 42.3776C24.189 42.7162 22.0657 42.6315 19.9424 42.8008Z" stroke="#003459" stroke-width="3" stroke-miterlimit="10"/>
<path d="M20.128 2C25.1132 2 29.1752 5.80919 29.1752 10.3802C29.1752 15.0359 24.8362 18.9297 19.7587 18.7604C14.7735 18.5911 10.8038 14.782 10.8961 10.2109C10.9884 5.55525 15.0505 2 20.128 2Z" stroke="#003459" stroke-width="3" stroke-miterlimit="10"/>
</svg>
