<svg width="39" height="50" viewBox="0 0 39 50" fill="none" xmlns="http://www.w3.org/2000/svg">
<path d="M25.1436 38.4512C27.3053 38.4512 29.4493 38.4512 31.6111 38.4512C32.5502 38.4512 33.0818 38.8764 33.0818 39.6029C33.0995 40.294 32.5148 40.7901 31.6288 40.7901C27.2876 40.7901 22.9641 40.7901 18.6229 40.7901C17.6661 40.7901 17.1699 40.3826 17.1699 39.6206C17.1699 38.841 17.6306 38.4512 18.6052 38.4512C20.7669 38.4512 22.9641 38.4512 25.1436 38.4512Z" fill="#003459"/>
<path d="M9.5144 20.5014C10.7193 19.3673 11.8711 18.2688 13.0228 17.1879C13.7493 16.5145 14.4403 16.4614 14.9542 16.993C15.5035 17.5423 15.3617 18.251 14.6175 18.9598C13.2886 20.2179 11.9597 21.4759 10.6307 22.734C9.74475 23.5845 9.26633 23.5845 8.39809 22.7163C7.72476 22.0429 7.06915 21.3873 6.41354 20.6963C5.81108 20.0761 5.75792 19.2965 6.25406 18.818C6.78564 18.3042 7.45897 18.4105 8.11458 19.0838C8.57528 19.5268 9.01826 20.0052 9.5144 20.5014Z" fill="#003459"/>
<path d="M9.51466 39.4256C10.7904 38.203 11.9422 37.0158 13.2003 35.9527C13.5192 35.6691 14.228 35.5628 14.6001 35.7223C14.9367 35.8641 15.0962 36.4842 15.2202 36.9272C15.2734 37.1044 15.0431 37.4056 14.8481 37.5828C13.3597 39.0181 11.8713 40.4356 10.3652 41.8532C9.76273 42.4202 9.16027 42.4202 8.57554 41.8354C7.81361 41.0912 7.06941 40.3293 6.36064 39.5497C5.79362 38.9295 5.7759 38.203 6.25432 37.7423C6.75046 37.2639 7.40607 37.317 8.02624 37.9195C8.5401 38.3979 9.0008 38.894 9.51466 39.4256Z" fill="#003459"/>
<path d="M9.51429 29.9635C10.7546 28.794 11.9595 27.6423 13.1645 26.4728C13.6252 26.0476 14.1744 25.8526 14.6706 26.2602C14.9718 26.526 15.149 27.0221 15.2199 27.4297C15.2553 27.6423 15.0072 27.9612 14.8123 28.1561C13.3594 29.5737 11.8887 30.9735 10.4003 32.3556C9.81552 32.9049 9.21307 32.958 8.61061 32.3556C7.84869 31.5759 7.06904 30.814 6.32483 30.0167C5.81098 29.4674 5.79326 28.7232 6.21852 28.2625C6.64378 27.8195 7.38799 27.8549 7.955 28.3865C8.22079 28.6346 8.45114 28.8826 8.69921 29.1307C8.98272 29.4142 9.21307 29.6623 9.51429 29.9635Z" fill="#003459"/>
<path d="M29.5557 6.55634C30.9909 6.55634 32.3199 6.55634 33.6488 6.55634C36.9268 6.57406 39 8.66493 39 11.943C39 22.8757 39 33.7908 39 44.7235C39 47.6118 37.0154 49.6495 34.1272 49.6495C24.3816 49.6672 14.6361 49.6672 4.8905 49.6495C1.96683 49.6318 0 47.6295 0 44.7235C0 33.7022 0 22.6985 0 11.6772C0 8.71808 2.07315 6.6095 5.03226 6.53862C6.4498 6.50318 7.84961 6.53862 9.42662 6.53862C9.42662 5.98932 9.42662 5.51091 9.42662 5.01477C9.42662 3.86302 9.72785 3.56179 10.915 3.54407C11.7656 3.54407 12.6338 3.52635 13.4843 3.54407C13.945 3.56179 14.1931 3.43776 14.4412 2.99478C15.5043 0.992505 17.2054 -0.0174901 19.4734 0.00022915C21.7238 0.0356676 23.4425 0.957067 24.488 3.0125C24.612 3.24285 24.9841 3.49092 25.2499 3.50863C26.1004 3.57951 26.9687 3.52635 27.8192 3.52635C29.2544 3.52635 29.5557 3.80986 29.5557 5.20968C29.5557 5.63494 29.5557 6.02476 29.5557 6.55634ZM9.44434 8.89528C8.09768 8.89528 6.85734 8.89528 5.63471 8.89528C3.29577 8.89528 2.37438 9.81668 2.37438 12.1733C2.37438 22.9289 2.37438 33.6667 2.37438 44.4223C2.37438 46.4069 3.2249 47.3105 5.20945 47.3105C14.7424 47.3283 24.293 47.3283 33.826 47.3105C35.8105 47.3105 36.6433 46.4069 36.6433 44.4046C36.6433 35.9348 36.6433 27.4473 36.6433 18.9775C36.6433 16.5854 36.6611 14.1933 36.6433 11.8012C36.6256 10.2951 35.7928 9.07247 34.4993 8.96615C32.8869 8.84212 31.2744 8.93071 29.6974 8.93071C29.6443 9.01931 29.6088 9.03703 29.6088 9.05475C29.5911 9.88755 29.5911 10.7026 29.5734 11.5354C29.5379 12.5277 29.095 12.9884 28.085 12.9884C22.3617 12.9884 16.6206 12.9884 10.8973 12.9884C9.92276 12.9884 9.4975 12.5632 9.46206 11.5886C9.40891 10.7381 9.44434 9.88755 9.44434 8.89528ZM27.0927 5.90073C26.1004 5.90073 25.1613 5.86529 24.2222 5.91845C23.3185 5.95389 22.8224 5.56406 22.5388 4.69582C22.025 3.11881 20.7846 2.16197 19.3848 2.19741C17.9496 2.21513 16.7269 3.15425 16.2308 4.73126C15.9473 5.5995 15.4334 5.95389 14.5298 5.91845C13.6615 5.88301 12.7756 5.91845 11.8542 5.91845C11.8542 7.54862 11.8542 9.05475 11.8542 10.614C16.9573 10.614 22.0073 10.614 27.075 10.614C27.0927 9.03703 27.0927 7.51318 27.0927 5.90073Z" fill="#003459"/>
<path d="M9.44511 8.89502C9.44511 9.8873 9.42739 10.7378 9.44511 11.5883C9.48055 12.5629 9.90581 12.9882 10.8804 12.9882C16.6037 12.9882 22.3447 12.9882 28.068 12.9882C29.078 12.9882 29.521 12.5275 29.5564 11.5352C29.5919 10.7024 29.5919 9.8873 29.5919 9.05449C29.5919 9.03677 29.6273 9.00133 29.6805 8.93046C31.2575 8.93046 32.8699 8.84186 34.4824 8.9659C35.7759 9.07221 36.6264 10.2948 36.6264 11.801C36.6441 14.1931 36.6264 16.5852 36.6264 18.9773C36.6264 27.447 36.6264 35.9345 36.6264 44.4043C36.6264 46.3889 35.7936 47.3103 33.809 47.3103C24.2761 47.328 14.7254 47.328 5.1925 47.3103C3.19022 47.3103 2.35742 46.4066 2.35742 44.4221C2.35742 33.6665 2.35742 22.9286 2.35742 12.1731C2.35742 9.81642 3.27882 8.89502 5.61776 8.89502C6.8581 8.89502 8.09845 8.89502 9.44511 8.89502ZM25.0735 31.363C27.1466 31.363 29.202 31.363 31.2752 31.363C31.5941 31.363 32.0017 31.4161 32.2143 31.239C32.5687 30.9554 33.0117 30.5125 32.9939 30.1404C32.9939 29.7683 32.5332 29.343 32.1789 29.0595C31.9662 28.9 31.5587 28.9355 31.2397 28.9355C27.1289 28.9355 23.0357 28.9355 18.9249 28.9355C18.6591 28.9355 18.3933 28.9532 18.1275 29.0063C17.4896 29.1304 17.153 29.5025 17.153 30.1758C17.153 30.8491 17.5428 31.2035 18.163 31.3275C18.411 31.3807 18.6945 31.3807 18.9603 31.3807C20.998 31.363 23.0357 31.363 25.0735 31.363ZM25.1089 21.8478C27.2706 21.8478 29.4147 21.8478 31.5764 21.8478C32.5332 21.8478 33.0471 21.4579 33.0648 20.7315C33.1003 20.005 32.5155 19.5088 31.5587 19.5088C27.2529 19.5088 22.9472 19.5088 18.6414 19.5088C17.6668 19.5088 17.1884 19.8987 17.1707 20.6429C17.153 21.4402 17.6491 21.83 18.6591 21.83C20.8031 21.8655 22.9649 21.8478 25.1089 21.8478ZM25.1443 38.4507C22.9649 38.4507 20.7854 38.4507 18.5882 38.4507C17.6137 38.4507 17.153 38.8405 17.153 39.6201C17.153 40.3821 17.6491 40.7896 18.6059 40.7896C22.9472 40.7896 27.2706 40.7896 31.6118 40.7896C32.4978 40.7896 33.0825 40.2935 33.0648 39.6024C33.0471 38.8759 32.5332 38.4507 31.5941 38.4507C29.4501 38.4507 27.2884 38.4507 25.1443 38.4507ZM9.51599 20.5011C9.03757 19.9872 8.59459 19.5265 8.13389 19.0659C7.47828 18.3925 6.80495 18.3039 6.27337 18.8001C5.77723 19.2785 5.83039 20.0581 6.43284 20.6783C7.08845 21.3516 7.74406 22.025 8.41739 22.6983C9.28564 23.5665 9.76405 23.5665 10.65 22.716C11.979 21.4579 13.2902 20.1999 14.6191 18.9418C15.381 18.233 15.5051 17.5243 14.9558 16.975C14.4419 16.4434 13.7509 16.4966 13.0244 17.1699C11.8549 18.2685 10.7209 19.3671 9.51599 20.5011ZM9.51599 39.4252C9.00213 38.8937 8.52371 38.3975 8.04529 37.9191C7.42512 37.3166 6.75179 37.2458 6.27337 37.7419C5.79495 38.2203 5.81267 38.9291 6.37968 39.5493C7.10617 40.3289 7.85038 41.0908 8.59459 41.835C9.17932 42.4021 9.79949 42.4021 10.3842 41.8528C11.8726 40.4352 13.3788 39.0177 14.8672 37.5824C15.0444 37.4052 15.2747 37.104 15.2393 36.9268C15.1153 36.4838 14.9381 35.8637 14.6191 35.7219C14.247 35.5624 13.5382 35.6688 13.2193 35.9523C11.9612 37.0154 10.7918 38.2026 9.51599 39.4252ZM9.51599 29.9632C9.23248 29.6619 8.98441 29.3962 8.73634 29.1481C8.48827 28.9 8.2402 28.6342 7.99213 28.4039C7.44284 27.89 6.69863 27.8369 6.25565 28.2798C5.81267 28.7405 5.84811 29.4848 6.36197 30.034C7.10617 30.8314 7.88582 31.5933 8.64774 32.373C9.23248 32.9754 9.85265 32.9223 10.4374 32.373C11.9258 30.9732 13.3965 29.5911 14.8495 28.1735C15.0444 27.9786 15.2924 27.6597 15.257 27.447C15.1861 27.0218 15.0089 26.5256 14.7077 26.2776C14.2116 25.8523 13.6623 26.0472 13.2016 26.4902C11.9612 27.642 10.7386 28.7937 9.51599 29.9632Z" fill="white"/>
<path d="M27.0919 5.90097C27.0919 7.51342 27.0919 9.01955 27.0919 10.5966C22.0242 10.5966 16.9742 10.5966 11.8711 10.5966C11.8711 9.03727 11.8711 7.53114 11.8711 5.90097C12.7925 5.90097 13.6607 5.86553 14.5467 5.90097C15.4327 5.93641 15.9642 5.58202 16.2477 4.71378C16.7439 3.13677 17.9488 2.21537 19.4018 2.17993C20.8016 2.16221 22.0419 3.10133 22.5558 4.67834C22.8393 5.52887 23.3177 5.93641 24.2391 5.90097C25.1605 5.88325 26.0996 5.90097 27.0919 5.90097Z" fill="white"/>
<path d="M25.0728 31.3634C23.0351 31.3634 20.9974 31.3634 18.9597 31.3634C18.6939 31.3634 18.4281 31.3634 18.1623 31.3102C17.5422 31.1862 17.1523 30.8318 17.1523 30.1585C17.1523 29.5029 17.5067 29.113 18.1269 28.989C18.3927 28.9358 18.6585 28.9181 18.9243 28.9181C23.0351 28.9181 27.1283 28.9181 31.2391 28.9181C31.5581 28.9181 31.9656 28.865 32.1782 29.0422C32.5326 29.3257 32.9933 29.7509 32.9933 30.123C32.9933 30.4951 32.5503 30.9381 32.2137 31.2216C32.001 31.3988 31.5935 31.3457 31.2746 31.3457C29.2014 31.3634 27.146 31.3634 25.0728 31.3634Z" fill="#003459"/>
<path d="M25.1087 21.8481C22.947 21.8481 20.803 21.8481 18.6412 21.8481C17.6135 21.8481 17.1351 21.4405 17.1528 20.6609C17.1705 19.899 17.649 19.5269 18.6235 19.5269C22.9293 19.5269 27.2351 19.5269 31.5408 19.5269C32.4977 19.5269 33.0824 20.0053 33.047 20.7495C33.0115 21.476 32.5154 21.8658 31.5585 21.8658C29.4322 21.8658 27.2705 21.8481 25.1087 21.8481Z" fill="#003459"/>
</svg>
