<svg width="48" height="43" viewBox="0 0 48 43" fill="none" xmlns="http://www.w3.org/2000/svg">
<path d="M9.38407 23.3025C10.4053 22.4669 11.4266 21.8171 12.355 21.0743C15.1402 18.939 18.1111 18.5676 21.4533 19.5889C23.4958 20.2388 25.4455 20.8887 27.5808 20.8887C28.602 20.8887 29.5305 20.703 30.5517 20.703C31.6658 20.703 32.7799 20.703 33.894 20.7958C35.008 20.8887 35.9364 21.4457 36.6792 22.3741C37.2362 21.6314 37.7933 20.8887 38.3503 20.2388C39.4644 19.1247 40.4856 17.9178 41.6926 16.8965C42.8066 15.9681 44.1992 15.5039 45.6847 15.8753C47.6343 16.3395 48.3771 17.4536 47.82 19.4032C47.3558 21.1672 46.4274 22.7455 45.499 24.2309C42.9923 27.9445 40.1143 31.3796 36.5863 34.1648C35.1009 35.2789 33.6154 36.2073 31.7586 36.4859C31.4801 36.4859 31.2944 36.4859 31.0159 36.4859C26.5596 36.4859 22.1961 36.4859 17.7397 36.4859C17.4612 36.4859 17.2755 36.4859 17.0898 36.4859C17.0898 37.0429 17.2755 37.5999 17.1827 38.157C17.0898 38.8997 16.6256 39.4568 15.9757 39.8281C14.5831 40.6637 13.1905 41.4992 11.7051 42.242C10.4053 42.8918 9.01271 42.5205 8.36282 41.3136C5.67045 36.6715 3.07092 31.9367 0.378543 27.2946C-0.364181 25.9949 0.00718067 24.6023 1.30695 23.9524C2.69955 23.1168 4.09216 22.2813 5.57761 21.5385C6.78454 20.8887 8.26998 21.26 9.01271 22.4669C9.10555 22.7455 9.19839 23.024 9.38407 23.3025ZM22.7531 26.6448C24.9813 26.6448 27.2094 26.6448 29.3448 26.6448C31.1087 26.6448 32.5942 26.1806 33.894 25.0665C34.1725 24.8808 34.5438 24.5094 34.451 24.4166C34.2653 24.0452 33.9868 23.8595 33.6154 23.581C33.4298 23.4882 33.1512 23.3953 32.8727 23.3953C31.9443 23.3953 31.0159 23.3953 30.0875 23.4882C28.1378 23.7667 26.1882 23.7667 24.3314 23.3025C22.7531 22.9311 21.1748 22.3741 19.5965 22.0027C17.7397 21.5385 15.9757 21.7242 14.3975 22.9311C13.2834 23.7667 12.1693 24.6023 11.0552 25.4378C10.6838 25.7164 10.591 25.9949 10.8695 26.3662C12.1693 28.5944 13.469 30.9154 14.7688 33.1436C15.0473 33.6078 15.3259 33.7935 15.8829 33.7935C20.6178 33.7935 25.4455 33.7935 30.1803 33.7935C31.4801 33.7935 32.5942 33.515 33.5226 32.7722C35.1009 31.5653 36.5863 30.3584 37.9789 28.9658C40.5785 26.3662 42.7138 23.581 44.3849 20.3316C44.6634 19.7746 44.8491 19.2175 45.0348 18.6605C44.2921 18.4748 43.6422 18.6605 43.178 19.0318C42.4353 19.6817 41.5997 20.3316 40.9498 21.0743C39.5572 22.6526 38.3503 24.3238 36.9577 25.902C35.3794 27.7588 33.3369 28.9658 30.9231 29.2443C28.7877 29.43 26.6524 29.43 24.4242 29.43C23.7743 29.43 23.1245 29.43 22.3817 29.43C22.7531 28.4087 22.7531 27.5732 22.7531 26.6448ZM2.88524 26.1806C5.48477 30.7297 7.99146 35.1861 10.591 39.7353C11.8908 38.9925 13.0977 38.3427 14.3046 37.5999C11.7051 33.0508 9.19839 28.5944 6.59885 24.0452C5.48477 24.6951 4.46352 25.2522 3.34944 25.902C3.2566 25.9949 3.07092 26.0877 2.88524 26.1806Z" fill="#003459"/>
<circle cx="29.2522" cy="12.5335" r="12.5335" fill="#003459"/>
<path d="M25.2661 11.8945V14.8003H23.5366V7.46875H26.7593C27.3537 7.46875 27.8299 7.53857 28.188 7.67822C28.5496 7.81429 28.8486 8.06673 29.085 8.43555C29.3213 8.80436 29.4395 9.21436 29.4395 9.66553C29.4395 10.5464 29.0151 11.1784 28.1665 11.5615L29.52 14.8003H27.624L26.4961 11.8945H25.2661ZM25.2661 8.77393V10.6431H26.3188C26.6626 10.6431 26.9115 10.6198 27.0654 10.5732C27.223 10.5231 27.3626 10.4157 27.4844 10.251C27.6061 10.0827 27.667 9.89111 27.667 9.67627C27.667 9.47217 27.6061 9.28955 27.4844 9.12842C27.3626 8.96729 27.2301 8.86882 27.0869 8.83301C26.9437 8.79362 26.6751 8.77393 26.2812 8.77393H25.2661ZM30.6909 16.6318V9.37549H32.1626V10.1704C32.4347 9.56527 32.911 9.2627 33.5913 9.2627C34.1785 9.2627 34.6584 9.49902 35.0308 9.97168C35.4067 10.4408 35.5947 11.1247 35.5947 12.0234C35.5947 12.9795 35.4049 13.701 35.0254 14.188C34.6494 14.6714 34.1589 14.9131 33.5537 14.9131C32.9414 14.9131 32.5046 14.675 32.2432 14.1987V16.6318H30.6909ZM32.2432 12.4263C32.2432 12.8094 32.2664 13.0744 32.313 13.2212C32.3595 13.368 32.458 13.5005 32.6084 13.6187C32.7588 13.7332 32.9217 13.7905 33.0972 13.7905C33.3156 13.7905 33.5107 13.6795 33.6826 13.4575C33.8545 13.2319 33.9404 12.7378 33.9404 11.9751C33.9404 10.9045 33.6576 10.3691 33.0918 10.3691C32.877 10.3691 32.6818 10.464 32.5063 10.6538C32.3309 10.8436 32.2432 11.1659 32.2432 11.6206V12.4263Z" fill="white"/>
</svg>
