<svg width="37" height="41" viewBox="0 0 37 41" fill="none" xmlns="http://www.w3.org/2000/svg">
<path d="M36.911 26.8553C36.911 28.3772 36.911 29.899 36.911 31.3313C36.911 32.8531 36.0201 33.7483 34.5055 33.7483C31.5653 33.7483 28.7142 33.7483 25.7741 33.7483C21.6757 33.7483 18.6464 30.7942 18.6464 26.7658C18.5573 23.0955 21.6757 19.9623 25.5959 19.8728C28.6251 19.7833 31.5653 19.8728 34.5946 19.8728C36.1983 19.8728 37.0001 20.768 37.0001 22.3793C36.911 23.9012 36.911 25.3335 36.911 26.8553ZM33.9709 22.4689C33.7036 22.4689 33.5254 22.4689 33.3472 22.4689C30.8525 22.4689 28.3578 22.4689 25.8632 22.4689C23.4576 22.4689 21.5866 24.2593 21.4975 26.4972C21.4084 29.0933 23.0121 31.0628 25.5068 31.2418C28.2687 31.3313 31.0307 31.2418 33.7927 31.2418C33.7927 31.2418 33.8818 31.1523 33.9709 31.1523C33.9709 28.2876 33.9709 25.423 33.9709 22.4689Z" fill="#003459"/>
<path d="M33.4351 35.5393C32.9005 35.5393 32.4551 35.5393 31.9205 35.5393C31.6532 35.5393 31.3859 35.7183 31.3859 36.0764C31.3859 36.2555 31.3859 36.4345 31.3859 36.6135C31.3859 37.9563 30.9404 38.4039 29.604 38.4039C21.3181 38.4039 12.9431 38.4039 4.65717 38.4039C3.40983 38.4039 2.96435 37.9563 2.96435 36.7926C2.96435 28.9148 2.96435 21.0371 2.96435 13.2489C2.96435 12.0852 3.40983 11.6376 4.56807 11.6376C6.0827 11.6376 7.50823 11.6376 9.02286 11.6376C9.73563 11.6376 10.092 11.6376 10.3593 11.9061C10.4484 12.0852 10.5375 12.1747 10.5375 12.3537C10.6266 12.7118 10.3593 13.0699 10.092 13.0699C9.02286 13.0699 8.04281 13.0699 6.97366 13.0699C6.34999 13.0699 6.26089 13.4279 6.26089 13.607C6.1718 14.0546 6.1718 14.5917 6.1718 15.1288C6.1718 15.3974 6.43909 15.6659 6.70637 15.6659H7.24095C9.46834 15.6659 11.6066 15.6659 13.834 15.6659C14.9923 16.2926 16.3287 16.6507 17.6652 16.6507C19.0907 16.6507 20.338 16.2926 21.4963 15.6659C23.8128 15.6659 26.2184 15.6659 28.5349 15.6659C30.8513 15.6659 31.3859 15.845 31.3859 18.083C31.3859 18.441 31.6532 18.441 31.7423 18.441H33.346C33.6133 18.441 33.8806 18.262 33.8806 17.9935C33.9697 16.4716 33.7024 15.0393 32.366 13.9651C32.1878 13.786 32.0987 13.3384 32.0096 13.0699C31.7423 10.6528 30.2277 9.22052 27.733 9.22052C27.2875 9.22052 26.842 9.22052 26.3075 9.22052C26.0402 9.22052 25.862 9.04148 25.7729 8.77293C25.6838 8.23581 25.6838 7.78821 25.5947 7.34061C25.5056 6.62445 25.3274 5.99782 25.0601 5.37118C24.7928 4.74454 24.4364 4.1179 24.0801 3.58079C22.7436 1.25328 20.338 0 17.6652 0C13.1213 0 9.46834 3.67031 9.46834 8.23581C9.46834 8.41485 9.46834 8.50437 9.46834 8.68341C9.37925 8.86244 9.20106 8.95197 9.02286 8.95197C8.84467 8.95197 8.75558 8.95197 8.57738 8.95197C6.97366 8.95197 5.36994 8.95197 3.76621 8.95197C1.62791 8.95197 0.113281 10.4738 0.113281 12.6223C0.113281 20.8581 0.113281 29.0939 0.113281 37.3297C0.113281 39.2096 0.915144 40.1943 2.96435 41C3.05344 41 3.05344 41 3.14254 41H30.9404C33.5242 41 33.8806 38.6725 33.8806 35.9869C33.9697 35.8079 33.7024 35.5393 33.4351 35.5393ZM26.6638 11.4585C27.5548 11.4585 28.2676 11.4585 29.0694 11.548C29.8713 11.548 30.2277 11.9956 30.2277 12.8908C28.4458 12.8908 26.5747 12.8908 24.7928 12.8908C25.0601 11.7271 25.5947 11.369 26.6638 11.4585Z" fill="#003459"/>
<path d="M14.5688 8.15088V10H13.4683V5.33447H15.519C15.8973 5.33447 16.2004 5.37891 16.4282 5.46777C16.6584 5.55436 16.8486 5.71501 16.999 5.94971C17.1494 6.18441 17.2246 6.44531 17.2246 6.73242C17.2246 7.29297 16.9546 7.69515 16.4146 7.93896L17.2759 10H16.0693L15.3516 8.15088H14.5688ZM14.5688 6.16504V7.35449H15.2388C15.4575 7.35449 15.6159 7.33968 15.7139 7.31006C15.8141 7.27816 15.903 7.2098 15.9805 7.10498C16.0579 6.99788 16.0967 6.87598 16.0967 6.73926C16.0967 6.60938 16.0579 6.49316 15.9805 6.39062C15.903 6.28809 15.8187 6.22542 15.7275 6.20264C15.6364 6.17757 15.4655 6.16504 15.2148 6.16504H14.5688ZM18.021 11.1655V6.54785H18.9575V7.05371C19.1307 6.66862 19.4338 6.47607 19.8667 6.47607C20.2404 6.47607 20.5457 6.62646 20.7827 6.92725C21.022 7.22575 21.1416 7.66097 21.1416 8.23291C21.1416 8.84131 21.0208 9.30046 20.7793 9.61035C20.54 9.91797 20.2279 10.0718 19.8428 10.0718C19.4531 10.0718 19.1751 9.92025 19.0088 9.61719V11.1655H18.021ZM19.0088 8.48926C19.0088 8.73307 19.0236 8.90169 19.0532 8.99512C19.0828 9.08854 19.1455 9.17285 19.2412 9.24805C19.3369 9.32096 19.4406 9.35742 19.5522 9.35742C19.6912 9.35742 19.8154 9.28678 19.9248 9.14551C20.0342 9.00195 20.0889 8.6875 20.0889 8.20215C20.0889 7.52083 19.9089 7.18018 19.5488 7.18018C19.4121 7.18018 19.2879 7.24056 19.1763 7.36133C19.0646 7.4821 19.0088 7.68717 19.0088 7.97656V8.48926Z" fill="white"/>
</svg>
