<svg width="44" height="40" viewBox="0 0 44 40" fill="none" xmlns="http://www.w3.org/2000/svg">
<path d="M39.3046 22.0675L12.0575 31.9423C9.95451 32.6738 7.57725 31.5766 6.75435 29.4736L2.45698 17.313C1.72551 15.21 2.82271 12.8328 4.92568 12.0099L32.0814 2.22651C34.1843 1.49505 36.5616 2.59225 37.3845 4.69521L41.7733 16.7644C42.5048 18.9588 41.4076 21.3361 39.3046 22.0675Z" stroke="#003459" stroke-width="2.8" stroke-miterlimit="10"/>
<path d="M37.3589 4.76262L2.45312 17.3989L4.28944 22.4714L39.1952 9.83513L37.3589 4.76262Z" fill="#003459"/>
<path d="M35.2817 38.1597H5.93163C3.82867 38.1597 2 36.4224 2 34.228V20.9702C2 18.8672 3.73723 17.0386 5.93163 17.0386H35.2817C37.3847 17.0386 39.2134 18.7758 39.2134 20.9702V34.3195C39.1219 36.4224 37.3847 38.1597 35.2817 38.1597Z" fill="white" stroke="#003459" stroke-width="2.8" stroke-miterlimit="10"/>
<path d="M39.1219 21.2446H2V26.6392H39.1219V21.2446Z" fill="#003459"/>
</svg>
