<svg width="36" height="45" viewBox="0 0 36 45" fill="none" xmlns="http://www.w3.org/2000/svg">
<path d="M33.2863 26.8699C32.8344 26.0658 32.4116 25.247 31.9159 24.4575C29.6561 20.9193 26.9297 17.7466 24.1597 14.6177C23.9993 14.4423 23.7514 14.2961 23.7514 14.0037C24.5242 13.8428 25.5739 14.3399 25.8071 13.1118C25.9238 12.4977 25.4427 12.2638 24.0722 12.1907C24.8595 11.3573 25.6468 10.5678 26.4049 9.74904C27.5567 8.49166 28.6938 7.21966 29.3062 5.59676C29.6415 4.71951 29.6415 3.85689 28.9709 3.14047C28.3294 2.43868 27.4983 2.49716 26.6673 2.67261C25.0927 3.00889 23.7077 3.78379 22.4101 4.66103C21.8416 5.05579 21.6083 4.89496 21.273 4.4271C20.7773 3.71068 20.1795 3.06737 19.4651 2.54102C18.4883 1.82461 17.8614 1.82461 16.87 2.51178C16.1119 3.05275 15.485 3.73992 14.9601 4.5002C14.6394 4.96806 14.4061 4.98269 13.925 4.67565C12.5837 3.79841 11.1986 3.00889 9.59491 2.65799C8.10782 2.32171 7.01437 2.90654 6.81025 4.19317C6.69362 4.9242 6.94147 5.58214 7.26221 6.22545C7.87455 7.48283 8.76389 8.56476 9.72612 9.55897C10.5571 10.4216 11.4319 11.255 12.3796 12.1907C11.5485 12.293 10.5134 11.9714 10.528 13.0387C10.5426 14.3838 11.7964 13.8282 12.6274 14.0475C12.4816 14.2084 12.3796 14.3399 12.2775 14.4569C10.6446 16.3284 8.98258 18.1706 7.46633 20.1298C5.64391 22.4691 3.87981 24.8523 2.64056 27.5717C2.13029 28.6975 1.89702 29.8672 2.04281 31.1099C2.52393 35.1452 4.71083 38.0986 8.07866 40.1017C14.1874 43.7569 20.544 43.9031 26.9297 40.8327C29.9039 39.3999 32.2075 37.2068 33.505 34.0926C34.5256 31.6655 34.6131 29.2531 33.2863 26.8699Z" stroke="#003459" stroke-width="2.5" stroke-miterlimit="10"/>
<path d="M24.5998 14.2127H10.8054C10.2771 14.2127 9.85156 13.6289 9.85156 12.9042C9.85156 12.1795 10.2771 11.5957 10.8054 11.5957H24.5998C25.1281 11.5957 25.5537 12.1795 25.5537 12.9042C25.5537 13.6088 25.1281 14.2127 24.5998 14.2127Z" fill="#003459"/>
<path d="M12.3403 28.6123V32.5747H9.98193V22.5771H14.3765C15.187 22.5771 15.8364 22.6724 16.3247 22.8628C16.8179 23.0483 17.2256 23.3926 17.5479 23.8955C17.8701 24.3984 18.0312 24.9575 18.0312 25.5728C18.0312 26.7739 17.4526 27.6357 16.2954 28.1582L18.1411 32.5747H15.5557L14.0176 28.6123H12.3403ZM12.3403 24.3569V26.9058H13.7759C14.2446 26.9058 14.584 26.874 14.7939 26.8105C15.0088 26.7422 15.1992 26.5957 15.3652 26.3711C15.5312 26.1416 15.6143 25.8804 15.6143 25.5874C15.6143 25.3091 15.5312 25.0601 15.3652 24.8403C15.1992 24.6206 15.0186 24.4863 14.8232 24.4375C14.6279 24.3838 14.2617 24.3569 13.7246 24.3569H12.3403ZM19.7378 35.0723V25.1772H21.7446V26.2612C22.1157 25.436 22.7651 25.0234 23.6929 25.0234C24.4937 25.0234 25.1479 25.3457 25.6558 25.9902C26.1685 26.6299 26.4248 27.5625 26.4248 28.7881C26.4248 30.0918 26.166 31.0757 25.6484 31.7397C25.1357 32.3989 24.4668 32.7285 23.6416 32.7285C22.8066 32.7285 22.2109 32.4038 21.8545 31.7544V35.0723H19.7378ZM21.8545 29.3374C21.8545 29.8599 21.8862 30.2212 21.9497 30.4214C22.0132 30.6216 22.1475 30.8022 22.3525 30.9634C22.5576 31.1196 22.7798 31.1978 23.019 31.1978C23.3169 31.1978 23.583 31.0464 23.8174 30.7437C24.0518 30.436 24.1689 29.7622 24.1689 28.7222C24.1689 27.2622 23.7832 26.5322 23.0117 26.5322C22.7188 26.5322 22.4526 26.6616 22.2134 26.9204C21.9741 27.1792 21.8545 27.6187 21.8545 28.2388V29.3374Z" fill="#003459"/>
</svg>
