<svg width="47" height="52" viewBox="0 0 47 52" fill="none" xmlns="http://www.w3.org/2000/svg">
<path d="M23.463 42.7867C17.6933 42.7867 11.9236 42.7867 6.15393 42.7867C4.28565 42.7867 3.05845 42.0345 2.43569 40.53C1.81293 38.9705 2.12431 37.4661 3.49805 36.2185C7.03312 32.9894 8.69991 29.0264 8.5717 24.2194C8.51675 21.926 8.4618 19.6143 8.71823 17.3576C9.45088 11.0095 14.1765 5.98235 20.4774 4.66135C21.21 4.51458 21.4665 4.25772 21.3932 3.54218C21.3382 3.06515 21.3566 2.56978 21.3932 2.07441C21.4481 0.918534 22.364 0.0378706 23.4446 0.00117627C24.5436 -0.035518 25.4594 0.790104 25.606 1.94598C25.6243 2.12945 25.6426 2.31292 25.6426 2.49639C25.6976 4.34945 25.6976 4.34945 27.4376 4.84483C34.1414 6.73458 38.3908 12.4772 38.4641 19.7244C38.4824 21.8893 38.4092 24.0726 38.5374 26.2376C38.7755 30.2189 40.4423 33.5214 43.4645 36.1267C44.7283 37.2276 45.1862 38.8238 44.6367 40.3466C44.0872 41.8877 42.7868 42.7684 41.0284 42.7684C35.1855 42.7867 29.3242 42.7867 23.463 42.7867Z" fill="#003459"/>
<path d="M47.001 20.3662C47.001 20.5497 47.001 20.7698 47.001 20.9717C46.9827 22.2926 46.1218 23.265 44.913 23.2834C43.7407 23.3017 42.9165 22.4027 42.7516 21.1184C42.4586 18.9535 42.2754 16.7335 41.7259 14.6235C40.7918 11.0458 38.8136 8.00021 36.2676 5.32153C35.3884 4.40417 35.3335 3.2116 36.0661 2.34929C36.9453 1.34019 38.319 1.24846 39.2715 2.31259C40.6086 3.85375 41.9457 5.41326 43.0447 7.1379C45.609 11.1559 46.7996 15.6143 47.001 20.3662Z" fill="#003459"/>
<path d="M0 19.9079C0.439594 13.0644 2.96726 7.26674 7.65627 2.42309C8.44387 1.59747 9.37801 1.39565 10.2206 1.79929C11.0814 2.22127 11.6309 3.12028 11.4295 4.03764C11.3196 4.55136 11.0265 5.06508 10.6602 5.45037C7.14341 9.1565 5.0187 13.5048 4.43258 18.6053C4.34099 19.3942 4.34099 20.1831 4.30436 20.9721C4.23109 22.3481 3.31527 23.3205 2.10639 23.2838C0.915821 23.2655 0.0732657 22.3481 0.0183164 20.9537C0 20.5684 0 20.1831 0 19.9079Z" fill="#003459"/>
<path d="M31.2838 45.0068C30.7709 48.4561 27.4007 51.2816 23.7374 51.3733C19.891 51.465 16.4658 48.7864 15.7148 45.0068C20.8984 45.0068 26.0636 45.0068 31.2838 45.0068Z" fill="#003459"/>
</svg>
