<svg width="55" height="55" viewBox="0 0 55 55" fill="none" xmlns="http://www.w3.org/2000/svg">
<path d="M54.9708 27.6206C55.001 42.5956 42.7488 54.9083 27.8645 54.9991C12.6173 55.1201 0.183501 43.2006 0.00198618 27.8929C-0.179529 12.3431 12.103 0.0303084 27.5318 5.59022e-05C42.779 -0.0301966 54.9405 12.2221 54.9708 27.6206ZM9.229 31.3719C13.5248 35.6072 17.7602 39.8123 22.1166 44.1384C29.7099 35.4862 37.3336 26.7735 45.0177 18.0608C43.5656 16.7902 42.3252 15.7314 41.0244 14.5818C37.7268 18.3331 34.5201 21.9634 31.3436 25.5634C28.1671 29.1635 24.9905 32.7938 21.6325 36.6056C18.6375 33.4896 15.8543 30.5551 13.0408 27.6206C11.6794 28.9819 10.4996 30.1315 9.229 31.3719Z" fill="#C4C4C4"/>
<path d="M9.22852 31.3717C10.4991 30.1313 11.679 28.9817 13.0403 27.6204C15.8538 30.5549 18.6673 33.4894 21.632 36.6054C24.9901 32.7935 28.1666 29.1632 31.3431 25.5632C34.5196 21.9329 37.7264 18.3329 41.0239 14.5815C42.3247 15.7311 43.5651 16.79 45.0172 18.0606C37.3331 26.8035 29.7095 35.5163 22.1161 44.1382C17.79 39.8424 13.5244 35.6373 9.22852 31.3717Z" fill="white"/>
</svg>
