<svg width="90" height="90" viewBox="0 0 90 90" fill="none" xmlns="http://www.w3.org/2000/svg">
<g clip-path="url(#clip0)">
<rect width="90" height="90" fill="white"/>
<path d="M62.8577 11.9473C65.4731 11.9473 67.8948 11.9473 70.3164 11.9473C76.2899 11.9796 80.0677 15.7896 80.0677 21.7631C80.0677 41.6853 80.0677 61.5752 80.0677 81.4974C80.0677 86.7604 76.4513 90.4736 71.1883 90.4736C53.4294 90.5059 35.6706 90.5059 17.9117 90.4736C12.5841 90.4414 9 86.7927 9 81.4974C9 61.4137 9 41.3624 9 21.2787C9 15.8865 12.7778 12.0441 18.17 11.915C20.7531 11.8504 23.3039 11.915 26.1776 11.915C26.1776 10.914 26.1776 10.0422 26.1776 9.13815C26.1776 7.03938 26.7266 6.49047 28.8899 6.45818C30.4398 6.45818 32.0219 6.42589 33.5718 6.45818C34.4113 6.49047 34.8633 6.26445 35.3154 5.45723C37.2527 1.80859 40.3524 -0.0318712 44.4854 0.000417569C48.5861 0.0649952 51.7181 1.74401 53.6231 5.48951C53.8492 5.90927 54.5272 6.36131 55.0116 6.3936C56.5614 6.52276 58.1436 6.42589 59.6934 6.42589C62.3088 6.42589 62.8577 6.94251 62.8577 9.49333C62.8577 10.2683 62.8577 10.9786 62.8577 11.9473ZM26.2099 16.2094C23.756 16.2094 21.4958 16.2094 19.2678 16.2094C15.0057 16.2094 13.3267 17.8884 13.3267 22.1828C13.3267 41.7821 13.3267 61.3491 13.3267 80.9484C13.3267 84.5648 14.8766 86.2115 18.4929 86.2115C35.8643 86.2438 53.268 86.2438 70.6393 86.2115C74.2557 86.2115 75.7733 84.5648 75.7733 80.9162C75.7733 65.4821 75.7733 50.0158 75.7733 34.5817C75.7733 30.2227 75.8055 25.8638 75.7733 21.5048C75.741 18.7602 74.2234 16.5323 71.8663 16.3386C68.928 16.1125 65.9898 16.274 63.116 16.274C63.0192 16.4354 62.9546 16.4677 62.9546 16.5C62.9223 18.0176 62.9223 19.5029 62.89 21.0204C62.8254 22.8286 62.0182 23.6681 60.1778 23.6681C49.7485 23.6681 39.2869 23.6681 28.8576 23.6681C27.0817 23.6681 26.3068 22.8932 26.2422 21.1173C26.1454 19.5674 26.2099 18.0176 26.2099 16.2094ZM58.3696 10.7526C56.5614 10.7526 54.8501 10.688 53.1388 10.7849C51.4921 10.8495 50.588 10.1391 50.0714 8.55695C49.135 5.68325 46.8748 3.93965 44.324 4.00423C41.7086 4.03652 39.4806 5.74783 38.5765 8.62153C38.0599 10.2037 37.1236 10.8495 35.4768 10.7849C33.8947 10.7203 32.2802 10.7849 30.6012 10.7849C30.6012 13.7554 30.6012 16.5 30.6012 19.3414C39.9004 19.3414 49.1027 19.3414 58.3373 19.3414C58.3696 16.4677 58.3696 13.6909 58.3696 10.7526Z" fill="#003459"/>
<path d="M58.9015 39.1961C59.2752 39.5223 59.6512 39.8489 60.0337 40.1812C60.2353 40.3563 60.4388 40.533 60.6447 40.7121C57.8388 43.9124 55.042 47.107 52.252 50.2938C48.0732 55.0669 43.9097 59.8225 39.7543 64.5534C37.9687 62.7786 36.1923 61.0173 34.4192 59.2593L34.3846 59.2251C32.6077 57.4633 30.8341 55.7048 29.0568 53.9383C29.6025 53.4036 30.1471 52.8685 30.7128 52.3079C33.1798 54.8866 35.6597 57.4812 38.2554 60.215L39.3858 61.4055L40.4697 60.1725C42.0007 58.4311 43.49 56.7319 44.958 55.057C46.7226 53.0438 48.4564 51.0657 50.1947 49.0915L50.1988 49.0869C52.0131 47.0091 53.8305 44.9488 55.6718 42.8614C56.739 41.6516 57.8142 40.4327 58.9015 39.1961Z" fill="#003459" stroke="#003459" stroke-width="3"/>
</g>
<defs>
<clipPath id="clip0">
<rect width="90" height="90" fill="white"/>
</clipPath>
</defs>
</svg>
