<svg width="33" height="29" viewBox="0 0 33 29" fill="none" xmlns="http://www.w3.org/2000/svg">
<path d="M29.9577 27.1134C29.3413 27.7302 28.7249 28.347 28.0611 29C28.0019 28.9395 27.8596 28.8186 27.7292 28.6856C26.295 27.2102 24.8488 25.7469 23.4264 24.2715C23.1775 24.0175 22.9878 23.9812 22.6559 24.1022C13.7066 27.4279 4.11716 23.304 0.181811 14.4516C-0.0315514 13.9679 -0.0789652 13.5567 0.158104 13.0367C1.29603 10.5092 2.87254 8.32027 4.95875 6.51835C5.1247 6.37323 5.29065 6.22811 5.44474 6.09508C4.04603 4.71643 2.68289 3.33778 1.34345 1.99541C2.10207 1.22143 2.7303 0.592577 3.29927 0C12.1656 9.02168 21.0794 18.0797 29.9577 27.1134ZM9.79496 10.3157C8.18289 13.0851 8.94151 17.0759 11.3596 19.3736C13.9437 21.8286 17.796 21.8044 19.7519 20.4862C19.0288 19.7727 18.3413 19.0592 17.6182 18.382C17.5116 18.2852 17.2982 18.2369 17.1441 18.249C13.9318 18.5634 11.6915 16.3019 11.9878 13.0246C11.9997 12.8432 11.9286 12.5892 11.81 12.4562C11.17 11.7427 10.4943 11.0534 9.79496 10.3157Z" fill="#003459"/>
<path d="M10.4922 3.25316C12.7206 2.38243 14.9609 2.068 17.2368 2.17684C21.267 2.37034 24.8467 3.79736 27.9405 6.45791C30.1571 8.36867 31.7928 10.6906 32.9189 13.4116C32.99 13.593 33.0019 13.847 32.9308 14.0284C31.8165 16.7494 30.1452 19.0592 27.8812 21.0063C27.1818 20.2928 26.4825 19.5793 25.795 18.8658C25.1312 18.1764 24.4674 17.4871 23.7799 16.822C23.5547 16.6043 23.4954 16.4108 23.5902 16.0964C25.2379 10.872 21.3144 5.69603 15.9566 6.03464C15.3402 6.07092 14.7239 6.3007 14.1075 6.40954C13.9297 6.44582 13.6689 6.4821 13.5741 6.38535C12.5547 5.3695 11.5471 4.32947 10.4922 3.25316Z" fill="#003459"/>
<path d="M16.5391 9.15462C18.649 8.73135 21.15 11.2589 20.9604 13.7259C19.4906 12.2022 17.9852 10.6542 16.5391 9.15462Z" fill="#003459"/>
</svg>
