<svg width="49" height="49" viewBox="0 0 49 49" fill="none" xmlns="http://www.w3.org/2000/svg">
<circle cx="24.5" cy="24.5" r="23.25" fill="#FFCB37" stroke="#003459" stroke-width="2.5"/>
<path d="M35.1294 27.5909C34.8097 27.0221 34.5106 26.443 34.16 25.8846C32.5616 23.3819 30.6332 21.1378 28.6739 18.9247C28.5605 18.8006 28.3852 18.6972 28.3852 18.4904C28.9317 18.3766 29.6742 18.7283 29.8392 17.8596C29.9217 17.4252 29.5814 17.2598 28.612 17.2081C29.1689 16.6186 29.7258 16.0602 30.262 15.481C31.0767 14.5917 31.881 13.692 32.3141 12.544C32.5513 11.9236 32.5513 11.3134 32.0769 10.8067C31.6232 10.3103 31.0354 10.3517 30.4476 10.4757C29.3339 10.7136 28.3542 11.2617 27.4364 11.8822C27.0343 12.1614 26.8693 12.0477 26.6321 11.7167C26.2815 11.21 25.8587 10.755 25.3534 10.3827C24.6625 9.87594 24.219 9.87594 23.5178 10.362C22.9816 10.7446 22.5381 11.2307 22.1669 11.7684C21.94 12.0994 21.775 12.1097 21.4347 11.8925C20.486 11.272 19.5064 10.7136 18.372 10.4654C17.3202 10.2276 16.5467 10.6412 16.4024 11.5513C16.3199 12.0683 16.4952 12.5337 16.7221 12.9887C17.1552 13.8781 17.7842 14.6434 18.4648 15.3466C19.0526 15.9567 19.6713 16.5462 20.3416 17.2081C19.7538 17.2804 19.0217 17.0529 19.032 17.8079C19.0423 18.7593 19.9292 18.3663 20.517 18.5214C20.4138 18.6352 20.3416 18.7283 20.2695 18.811C19.1145 20.1347 17.9389 21.4377 16.8664 22.8235C15.5774 24.4781 14.3296 26.1638 13.4531 28.0873C13.0922 28.8836 12.9272 29.7109 13.0303 30.5899C13.3706 33.4442 14.9174 35.5332 17.2995 36.95C21.6204 39.5353 26.1165 39.6388 30.6332 37.467C32.7369 36.4536 34.3663 34.9023 35.284 32.6996C36.0059 30.9829 36.0678 29.2766 35.1294 27.5909Z" fill="white" stroke="#003459" stroke-width="2.5" stroke-miterlimit="10"/>
<path d="M28.9854 18.6383H19.2284C18.8547 18.6383 18.5537 18.2254 18.5537 17.7128C18.5537 17.2002 18.8547 16.7872 19.2284 16.7872H28.9854C29.3591 16.7872 29.6601 17.2002 29.6601 17.7128C29.6601 18.2111 29.3591 18.6383 28.9854 18.6383Z" fill="#003459"/>
<path d="M20.1768 30.082V32.7236H18.6045V26.0586H21.5342C22.0745 26.0586 22.5075 26.1221 22.833 26.249C23.1618 26.3727 23.4336 26.6022 23.6484 26.9375C23.8633 27.2728 23.9707 27.6455 23.9707 28.0557C23.9707 28.8564 23.585 29.431 22.8135 29.7793L24.0439 32.7236H22.3203L21.2949 30.082H20.1768ZM20.1768 27.2451V28.9443H21.1338C21.4463 28.9443 21.6725 28.9232 21.8125 28.8809C21.9557 28.8353 22.0827 28.7376 22.1934 28.5879C22.304 28.4349 22.3594 28.2607 22.3594 28.0654C22.3594 27.8799 22.304 27.7139 22.1934 27.5674C22.0827 27.4209 21.9622 27.3314 21.832 27.2988C21.7018 27.263 21.4577 27.2451 21.0996 27.2451H20.1768ZM25.1084 34.3887V27.792H26.4463V28.5146C26.6937 27.9645 27.1266 27.6895 27.7451 27.6895C28.279 27.6895 28.7152 27.9043 29.0537 28.334C29.3955 28.7604 29.5664 29.3822 29.5664 30.1992C29.5664 31.0684 29.3939 31.7243 29.0488 32.167C28.707 32.6064 28.2611 32.8262 27.7109 32.8262C27.1543 32.8262 26.7572 32.6097 26.5195 32.1768V34.3887H25.1084ZM26.5195 30.5654C26.5195 30.9137 26.5407 31.1546 26.583 31.2881C26.6253 31.4215 26.7148 31.542 26.8516 31.6494C26.9883 31.7536 27.1364 31.8057 27.2959 31.8057C27.4945 31.8057 27.6719 31.7048 27.8281 31.5029C27.9844 31.2979 28.0625 30.8486 28.0625 30.1553C28.0625 29.182 27.8053 28.6953 27.291 28.6953C27.0957 28.6953 26.9183 28.7816 26.7588 28.9541C26.5993 29.1266 26.5195 29.4196 26.5195 29.833V30.5654Z" fill="#003459"/>
</svg>
