<svg width="49" height="49" viewBox="0 0 49 49" fill="none" xmlns="http://www.w3.org/2000/svg">
<circle cx="24.5" cy="24.5" r="23.25" fill="#39B54A" stroke="#003459" stroke-width="2.5"/>
<path d="M13.7217 27.074C13.6974 28.1001 13.0293 28.1001 12.3248 28.088C11.2073 28.0639 10.1019 28.088 8.98438 28.0759C8.23126 28.0759 8.00047 27.8345 8.00047 27.1103C8.00047 23.0424 8.00047 18.9866 8.00047 14.9187C7.98832 14.279 8.23126 13.9772 8.76573 14.0013C10.8064 14.122 12.8471 14.291 14.815 14.8825C15.0822 14.967 15.3494 15.0756 15.6045 15.1843C16.3455 15.4619 16.6492 15.9689 16.4184 16.8138C17.2565 16.8138 17.9975 16.8138 18.7385 16.8138C19.528 16.8138 20.3176 16.7897 21.1071 16.8259C21.7388 16.8621 22.2611 16.7173 22.7956 16.3431C24.2775 15.2929 25.8931 15.2929 27.5329 15.9447C29.0513 16.5483 30.5575 17.188 32.1366 17.8399C32.0395 17.2363 32.331 16.9466 32.7926 16.7656C35.5257 15.7516 38.3681 15.4378 41.2469 15.4136C41.8421 15.4136 42 15.8361 42 16.3672C41.9879 18.4555 42 20.5558 42 22.6441C42 24.5995 42 26.5429 42 28.4984C42 29.283 41.7814 29.4882 40.9797 29.4882C39.9715 29.4882 38.9511 29.4641 37.9429 29.5003C37.0805 29.5244 36.2788 29.5244 36.1573 28.4018C35.4649 28.7036 35.0276 29.0295 35.0155 29.8745C35.0033 30.816 34.0923 31.5765 33.0963 31.7937C32.8533 31.842 32.5982 31.9989 32.4525 32.1921C31.8451 32.9646 31.0556 33.3026 30.0959 33.363C29.8894 33.375 29.6222 33.5078 29.4886 33.6647C28.8084 34.4855 28.0066 34.9442 26.9013 34.739C26.7676 34.7149 26.5976 34.6907 26.4883 34.7511C24.9699 35.5357 23.5608 35.0649 22.334 34.1838C19.4308 32.0834 16.4791 30.0073 14.0375 27.3396C13.9647 27.2551 13.8796 27.1948 13.7217 27.074ZM28.4561 32.4818C28.3346 32.3973 28.1767 32.3128 28.0431 32.1921C27.0956 31.2264 26.1481 30.2607 25.2128 29.2951C24.897 28.9571 24.9091 28.595 25.2371 28.2811C25.5408 27.9914 25.9052 28.0276 26.221 28.3053C26.3668 28.4381 26.5004 28.595 26.6462 28.7398C27.6422 29.7176 28.614 30.7074 29.6343 31.6489C30.0595 32.0472 30.6061 31.9869 31.0677 31.6248C31.3349 31.4075 31.42 31.2143 31.1163 30.9488C30.8126 30.6953 30.5211 30.3935 30.2417 30.1159C29.2942 29.1502 28.3468 28.1846 27.4114 27.2189C27.0956 26.893 27.0349 26.5188 27.3629 26.2049C27.6787 25.8911 28.0552 25.9152 28.3954 26.217C28.529 26.3377 28.6504 26.4705 28.7841 26.6033C29.9259 27.75 31.0556 28.8847 32.1974 30.0435C32.5375 30.3935 32.9019 30.5142 33.3271 30.2004C33.7522 29.8866 33.8494 29.452 33.5578 29.0416C33.1934 28.5225 32.8047 27.9794 32.3188 27.569C30.1324 25.71 27.9702 23.8994 25.7959 22.0888C25.6987 22.0043 25.5165 21.8836 25.4436 21.9077C24.8484 22.1612 24.156 22.3423 23.7066 22.7648C22.5769 23.827 21.3501 24.2857 19.8438 23.8029C18.9935 23.5494 18.5562 22.9338 18.5562 22.0526C18.5562 21.0145 19.0421 20.1575 19.6009 19.3366C19.8438 18.9866 20.1111 18.6486 20.439 18.2141C19.0543 18.2141 17.7788 18.202 16.5155 18.2261C16.3819 18.2261 16.1633 18.4555 16.1147 18.6124C15.5195 20.7851 14.9486 22.9579 14.3898 25.1306C14.3412 25.3358 14.4141 25.6497 14.5477 25.8066C17.0743 28.6433 20.1597 30.8281 23.1964 33.0612C23.7552 33.4716 24.4111 33.7009 25.2128 33.5682C25.0671 33.3267 24.8241 33.2181 24.6419 33.037C23.9131 32.3128 23.2086 31.5644 22.4919 30.8281C22.4554 30.7798 22.4069 30.7436 22.3704 30.6953C22.0789 30.3452 22.091 29.9831 22.419 29.6693C22.7591 29.3434 23.1114 29.4279 23.4272 29.7417C24.5083 30.8281 25.5651 31.9386 26.6826 32.9767C27.375 33.6285 27.9702 33.4475 28.4561 32.4818ZM35.7322 26.9171C34.8819 24.5995 34.0559 22.3423 33.2056 20.085C33.1327 19.8798 32.9626 19.6384 32.7804 19.5539C30.764 18.7331 28.7476 17.9123 26.7069 17.1397C25.5287 16.6931 24.3868 16.85 23.3786 17.6226C22.6984 18.1537 21.9939 18.6969 21.4472 19.3487C20.8763 20.0367 20.4269 20.8334 20.0503 21.6422C19.7831 22.1974 20.0017 22.4268 20.6091 22.5716C21.2772 22.7165 21.921 22.5716 22.334 22.0647C22.9049 21.3525 23.5973 20.93 24.484 20.7731C24.5204 20.761 24.5569 20.7489 24.5933 20.7248C25.4315 20.2057 26.1724 20.2178 26.8041 21.0748C26.9499 21.268 27.1685 21.4008 27.3507 21.5577C29.7315 23.6097 32.3553 25.3721 34.4567 27.7862C34.8576 27.4965 35.2584 27.231 35.7322 26.9171ZM33.8372 17.8881C34.1166 18.552 34.3838 19.1314 34.6025 19.735C35.5378 22.3423 36.461 24.9496 37.4085 27.5569C37.4813 27.75 37.6635 28.0397 37.8093 28.0518C38.7082 28.1001 39.6192 28.0759 40.5424 28.0759C40.5424 24.3098 40.5424 20.6041 40.5424 16.85C38.2466 16.8983 36.048 17.176 33.8372 17.8881ZM9.47026 15.4619C9.47026 19.228 9.47026 22.9217 9.47026 26.6636C10.3327 26.6636 11.1344 26.6395 11.9483 26.6757C12.3248 26.6878 12.4706 26.5429 12.5678 26.1929C13.0901 24.334 13.661 22.4992 14.159 20.6403C14.5234 19.2642 14.7785 17.8761 15.0943 16.4517C13.2116 15.7878 11.3652 15.6068 9.47026 15.4619Z" fill="#003459"/>
<path d="M26.7623 32.9164L26.7631 32.9172C27.0914 33.2259 27.3746 33.3142 27.6201 33.2426C27.8593 33.1727 28.0985 32.9421 28.3258 32.5168C28.2989 32.4996 28.2702 32.4818 28.2395 32.4628C28.2251 32.4539 28.2103 32.4447 28.195 32.4351C28.1169 32.3864 28.0295 32.3306 27.9354 32.2621L27.929 32.2574L27.9234 32.2518C26.9756 31.2979 26.0277 30.3317 25.0918 29.3534L25.091 29.3525C24.9208 29.1703 24.8294 28.971 24.8348 28.7656C24.8403 28.5601 24.9421 28.3676 25.1192 28.1981L25.1208 28.1966L25.1208 28.1966C25.2947 28.0371 25.4867 27.9608 25.6848 27.9697C25.8806 27.9786 26.0682 28.07 26.2375 28.2186C26.2378 28.2189 26.238 28.2191 26.2383 28.2194L26.1723 28.2945C26.2707 28.3773 26.355 28.4694 26.4399 28.5622C26.4911 28.6182 26.5426 28.6745 26.5974 28.729L26.7623 32.9164ZM26.7623 32.9164C25.9488 32.1689 25.1805 31.3846 24.4085 30.5968C24.1107 30.2927 23.8123 29.9882 23.5106 29.685C23.3438 29.513 23.1566 29.3964 22.9548 29.3749C22.7488 29.353 22.5478 29.4322 22.3618 29.6104C22.1842 29.7804 22.0862 29.9696 22.079 30.174C22.0719 30.3766 22.1545 30.5768 22.3029 30.7693C22.3254 30.799 22.3508 30.8243 22.3709 30.8442L22.3727 30.846C22.3947 30.8679 22.4108 30.8841 22.4241 30.9016L22.4234 30.9021L22.4322 30.9112C22.6703 31.1557 22.9074 31.4021 23.1448 31.6487C23.6203 32.1427 24.0968 32.6377 24.5834 33.1213C24.6553 33.1928 24.738 33.2569 24.8151 33.3167C24.8411 33.3369 24.8664 33.3566 24.8905 33.3759C24.9426 33.4176 24.9911 33.4591 25.0347 33.5037C24.3414 33.5659 23.7663 33.3602 23.2676 32.9939C23.0456 32.8307 22.8234 32.6677 22.6012 32.5048C19.782 30.4373 16.9692 28.3745 14.6352 25.7543C14.5814 25.6908 14.5327 25.5889 14.505 25.4762C14.4771 25.3626 14.4741 25.2521 14.4977 25.1724L14.4978 25.1724L14.4988 25.1682C15.045 22.985 15.6277 20.8137 16.2226 18.6539C16.2408 18.5965 16.2927 18.5173 16.3612 18.4492C16.3947 18.4158 16.4295 18.388 16.4619 18.3684C16.4936 18.3493 16.5178 18.3412 16.5333 18.3394C17.4822 18.3215 18.4241 18.3236 19.4157 18.3258C19.6892 18.3265 19.9666 18.3271 20.2489 18.3273C20.1896 18.4042 20.1316 18.4784 20.0752 18.5506C19.8723 18.8102 19.6889 19.0449 19.5298 19.2942C18.9571 20.1059 18.4561 20.984 18.4561 22.0538C18.4561 22.5112 18.5698 22.9071 18.8001 23.2246C19.0305 23.5422 19.372 23.7736 19.8138 23.9116C20.584 24.1523 21.2875 24.1596 21.9443 23.968C22.5998 23.7768 23.2023 23.3894 23.7749 22.851C23.9869 22.6517 24.2596 22.5064 24.5596 22.3782C24.7093 22.3142 24.8638 22.2553 25.0197 22.196L25.0265 22.1934C25.1784 22.1356 25.3316 22.0773 25.4793 22.0145C25.4814 22.0145 25.4864 22.0149 25.4953 22.0172C25.513 22.0219 25.5367 22.0321 25.565 22.0484C25.6214 22.0809 25.6814 22.1295 25.7252 22.1731L25.725 22.1733L25.7315 22.1788C26.0707 22.4628 26.4101 22.7468 26.7497 23.0309C28.575 24.5581 30.4029 26.0875 32.205 27.634L32.2056 27.6345C32.68 28.0352 33.0617 28.5676 33.427 29.0878C33.5604 29.2813 33.5989 29.465 33.5645 29.6306C33.5299 29.7977 33.4177 29.9624 33.2189 30.1091C33.0239 30.2531 32.8575 30.2872 32.7053 30.2574C32.548 30.2267 32.3891 30.1246 32.2189 29.9615C31.0893 28.8148 29.9476 27.6683 28.8062 26.5219L28.8058 26.5215C28.7632 26.4792 28.7208 26.4358 28.6782 26.3921C28.5917 26.3035 28.5045 26.2141 28.4136 26.132L28.413 26.1314C28.2308 25.9698 28.03 25.8746 27.8238 25.8693C27.6157 25.864 27.4173 25.9506 27.2436 26.1232L27.2423 26.1245C27.0677 26.3047 26.9901 26.5069 27.0064 26.7135C27.0224 26.917 27.1283 27.1097 27.2908 27.2776L27.2913 27.2781C27.7649 27.7608 28.2355 28.2435 28.7062 28.7264L28.7064 28.7266C29.177 29.2093 29.6478 29.6922 30.1216 30.1751L30.1231 30.1767C30.4008 30.4647 30.6836 30.7579 31.004 31.0152C31.1528 31.1405 31.1762 31.2232 31.1676 31.2789C31.1574 31.3456 31.0964 31.4271 30.9576 31.535L30.9576 31.535L30.9562 31.5361C30.7446 31.7065 30.5125 31.8018 30.2889 31.8113C30.0673 31.8207 29.8473 31.7463 29.654 31.5651L29.6539 31.565C29.0055 30.9591 28.3779 30.3396 27.75 29.7198C27.3906 29.365 27.031 29.0101 26.6675 28.6576L26.7623 32.9164Z" fill="white" stroke="#003459" stroke-width="0.2"/>
<path d="M20.5984 22.561L20.6198 22.4633C20.317 22.3971 20.1508 22.3127 20.0791 22.2041C20.0131 22.1042 20.0069 21.9485 20.1306 21.6731C20.5046 20.87 20.9619 20.0814 21.5137 19.4017C22.0523 18.7596 22.7365 18.2103 23.4279 17.6919L23.4279 17.692L23.4292 17.691C24.3969 16.9404 25.5141 16.788 26.6608 17.2226L26.6608 17.2226C28.7002 17.9946 30.7155 18.815 32.7321 19.6359L32.7328 19.6362C32.7995 19.6627 32.8741 19.7278 32.9437 19.8195C33.0119 19.9094 33.0677 20.015 33.1007 20.1079L33.1007 20.1079L33.1014 20.1099C33.9093 22.2355 34.6851 24.3506 35.4792 26.5153C35.5236 26.6363 35.568 26.7575 35.6125 26.8788C35.1948 27.1556 34.8319 27.3962 34.4632 27.6436C33.4218 26.4642 32.2568 25.4361 31.0613 24.4528C30.5993 24.0728 30.1338 23.7002 29.669 23.3283C28.9058 22.7176 28.1448 22.1087 27.4053 21.4713L27.4053 21.4713C27.3475 21.4214 27.283 21.3716 27.2209 21.3236C27.1845 21.2954 27.1488 21.2678 27.1157 21.2413C27.0223 21.1661 26.9389 21.0909 26.8736 21.0044C26.5467 20.561 26.1813 20.3234 25.7777 20.2739C25.377 20.2247 24.9589 20.3635 24.53 20.6291L24.53 20.6291L24.5274 20.6308C24.5081 20.6436 24.4951 20.652 24.4835 20.6578C24.4766 20.6612 24.4731 20.6622 24.4721 20.6624H24.4638L24.4544 20.6642C23.5566 20.8377 22.8436 21.2606 22.2459 21.9907L22.2458 21.9908C21.8629 22.4608 21.2619 22.6025 20.6196 22.4632L20.5984 22.561ZM20.5984 22.561C21.2665 22.7058 21.9103 22.561 22.3233 22.054M20.5984 22.561C19.9911 22.4282 19.7846 22.1989 20.0397 21.6315C20.4162 20.8228 20.8778 20.0261 21.4366 19.3381L22.3233 22.054M22.3233 22.054C22.9064 21.3418 23.5987 20.9314 24.4733 20.7624L22.3233 22.054ZM32.7698 19.5433C32.952 19.6157 33.122 19.8692 33.1949 20.0744L32.7698 19.5433Z" fill="white" stroke="#003459" stroke-width="0.2"/>
<path d="M34.6983 19.6905L34.6983 19.6905L34.6973 19.6879C34.5812 19.3905 34.4561 19.0964 34.3271 18.7947C34.3181 18.7736 34.309 18.7525 34.2999 18.7312C34.1924 18.4799 34.0824 18.2227 33.9721 17.952C36.1041 17.2782 38.2387 17.0069 40.444 16.9422V16.9493V16.9713V16.9933V17.0153V17.0373V17.0593V17.0812V17.1032V17.1252V17.1472V17.1692V17.1912V17.2131V17.2351V17.2571V17.2791V17.301V17.323V17.345V17.367V17.3889V17.4109V17.4329V17.4548V17.4768V17.4988V17.5207V17.5427V17.5647V17.5866V17.6086V17.6305V17.6525V17.6745V17.6964V17.7184V17.7403V17.7623V17.7842V17.8062V17.8281V17.8501V17.872V17.894V17.9159V17.9379V17.9598V17.9818V18.0037V18.0257V18.0476V18.0696V18.0915V18.1134V18.1354V18.1573V18.1793V18.2012V18.2231V18.2451V18.267V18.2889V18.3109V18.3328V18.3547V18.3767V18.3986V18.4205V18.4425V18.4644V18.4863V18.5082V18.5302V18.5521V18.574V18.5959V18.6179V18.6398V18.6617V18.6836V18.7055V18.7275V18.7494V18.7713V18.7932V18.8151V18.8371V18.859V18.8809V18.9028V18.9247V18.9466V18.9685V18.9904V19.0124V19.0343V19.0562V19.0781V19.1V19.1219V19.1438V19.1657V19.1876V19.2095V19.2314V19.2533V19.2752V19.2971V19.319V19.3409V19.3628V19.3848V19.4067V19.4286V19.4505V19.4723V19.4942V19.5161V19.538V19.5599V19.5818V19.6037V19.6256V19.6475V19.6694V19.6913V19.7132V19.7351V19.757V19.7789V19.8008V19.8227V19.8446V19.8664V19.8883V19.9102V19.9321V19.954V19.9759V19.9978V20.0197V20.0416V20.0634V20.0853V20.1072V20.1291V20.151V20.1729V20.1947V20.2166V20.2385V20.2604V20.2823V20.3042V20.326V20.3479V20.3698V20.3917V20.4136V20.4355V20.4573V20.4792V20.5011V20.523V20.5449V20.5667V20.5886V20.6105V20.6324V20.6542V20.6761V20.698V20.7199V20.7417V20.7636V20.7855V20.8074V20.8293V20.8511V20.873V20.8949V20.9168V20.9386V20.9605V20.9824V21.0043V21.0261V21.048V21.0699V21.0917V21.1136V21.1355V21.1574V21.1792V21.2011V21.223V21.2449V21.2667V21.2886V21.3105V21.3323V21.3542V21.3761V21.398V21.4198V21.4417V21.4636V21.4854V21.5073V21.5292V21.5511V21.5729V21.5948V21.6167V21.6385V21.6604V21.6823V21.7042V21.726V21.7479V21.7698V21.7916V21.8135V21.8354V21.8572V21.8791V21.901V21.9229V21.9447V21.9666V21.9885V22.0103V22.0322V22.0541V22.076V22.0978V22.1197V22.1416V22.1634V22.1853V22.2072V22.229V22.2509V22.2728V22.2947V22.3165V22.3384V22.3603V22.3822V22.404V22.4259V22.4478V22.4696V22.4915V22.5134V22.5353V22.5571V22.579V22.6009V22.6228V22.6446V22.6665V22.6884V22.7102V22.7321V22.754V22.7759V22.7977V22.8196V22.8415V22.8634V22.8853V22.9071V22.929V22.9509V22.9728V22.9946V23.0165V23.0384V23.0603V23.0821V23.104V23.1259V23.1478V23.1697V23.1915V23.2134V23.2353V23.2572V23.2791V23.3009V23.3228V23.3447V23.3666V23.3885V23.4104V23.4322V23.4541V23.476V23.4979V23.5198V23.5417V23.5636V23.5854V23.6073V23.6292V23.6511V23.673V23.6949V23.7168V23.7387V23.7605V23.7824V23.8043V23.8262V23.8481V23.87V23.8919V23.9138V23.9357V23.9576V23.9795V24.0014V24.0232V24.0451V24.067V24.0889V24.1108V24.1327V24.1546V24.1765V24.1984V24.2203V24.2422V24.2641V24.286V24.3079V24.3298V24.3517V24.3736V24.3955V24.4174V24.4393V24.4613V24.4832V24.5051V24.527V24.5489V24.5708V24.5927V24.6146V24.6365V24.6584V24.6803V24.7023V24.7242V24.7461V24.768V24.7899V24.8118V24.8337V24.8557V24.8776V24.8995V24.9214V24.9433V24.9652V24.9872V25.0091V25.031V25.0529V25.0749V25.0968V25.1187V25.1406V25.1626V25.1845V25.2064V25.2283V25.2503V25.2722V25.2941V25.3161V25.338V25.3599V25.3819V25.4038V25.4257V25.4477V25.4696V25.4916V25.5135V25.5354V25.5574V25.5793V25.6013V25.6232V25.6451V25.6671V25.689V25.711V25.7329V25.7549V25.7768V25.7988V25.8207V25.8427V25.8646V25.8866V25.9085V25.9305V25.9525V25.9744V25.9964V26.0183V26.0403V26.0622V26.0842V26.1062V26.1281V26.1501V26.1721V26.194V26.216V26.238V26.2599V26.2819V26.3039V26.3259V26.3478V26.3698V26.3918V26.4138V26.4357V26.4577V26.4797V26.5017V26.5237V26.5456V26.5676V26.5896V26.6116V26.6336V26.6556V26.6776V26.6995V26.7215V26.7435V26.7655V26.7875V26.8095V26.8315V26.8535V26.8755V26.8975V26.9195V26.9415V26.9635V26.9855V27.0075V27.0295V27.0515V27.0735V27.0956V27.1176V27.1396V27.1616V27.1836V27.2056V27.2276V27.2497V27.2717V27.2937V27.3157V27.3377V27.3598V27.3818V27.4038V27.4259V27.4479V27.4699V27.4919V27.514V27.536V27.558V27.5801V27.6021V27.6242V27.6462V27.6682V27.6903V27.7123V27.7344V27.7564V27.7785V27.8005V27.8226V27.8446V27.8667V27.8887V27.9108V27.9329V27.9549V27.9653C40.241 27.9657 40.04 27.967 39.8406 27.9683C39.1544 27.9728 38.4869 27.9772 37.8184 27.9413C37.8107 27.9404 37.7914 27.934 37.7606 27.9086C37.7303 27.8836 37.697 27.847 37.6635 27.8019C37.5964 27.7117 37.5372 27.5995 37.5039 27.5114C36.8724 25.7737 36.2518 24.0362 35.6311 22.2983C35.3206 21.4292 35.0101 20.5599 34.6983 19.6905Z" fill="white" stroke="#003459" stroke-width="0.2"/>
<path d="M14.0618 20.6162L14.0617 20.6165C13.7589 21.7751 13.4189 22.927 13.0788 24.0789C12.8735 24.7745 12.6681 25.4701 12.471 26.1671L12.4709 26.1676C12.424 26.3366 12.3702 26.4357 12.2988 26.4942C12.2296 26.551 12.1273 26.5829 11.9509 26.5772L11.9507 26.5772C11.35 26.5591 10.7418 26.5613 10.1137 26.5636C9.9341 26.5642 9.75288 26.5649 9.56973 26.5651V26.5555V26.5336V26.5117V26.4897V26.4678V26.4459V26.424V26.4021V26.3802V26.3583V26.3364V26.3144V26.2925V26.2706V26.2487V26.2268V26.2049V26.183V26.1611V26.1392V26.1173V26.0954V26.0735V26.0516V26.0297V26.0078V25.9859V25.964V25.9421V25.9202V25.8984V25.8765V25.8546V25.8327V25.8108V25.7889V25.767V25.7452V25.7233V25.7014V25.6795V25.6576V25.6357V25.6139V25.592V25.5701V25.5482V25.5264V25.5045V25.4826V25.4607V25.4389V25.417V25.3951V25.3732V25.3514V25.3295V25.3076V25.2858V25.2639V25.242V25.2202V25.1983V25.1765V25.1546V25.1327V25.1109V25.089V25.0671V25.0453V25.0234V25.0016V24.9797V24.9579V24.936V24.9141V24.8923V24.8704V24.8486V24.8267V24.8049V24.783V24.7612V24.7393V24.7175V24.6956V24.6738V24.6519V24.6301V24.6082V24.5864V24.5646V24.5427V24.5209V24.499V24.4772V24.4553V24.4335V24.4117V24.3898V24.368V24.3461V24.3243V24.3025V24.2806V24.2588V24.237V24.2151V24.1933V24.1715V24.1496V24.1278V24.106V24.0841V24.0623V24.0405V24.0186V23.9968V23.975V23.9531V23.9313V23.9095V23.8876V23.8658V23.844V23.8222V23.8003V23.7785V23.7567V23.7348V23.713V23.6912V23.6694V23.6475V23.6257V23.6039V23.5821V23.5603V23.5384V23.5166V23.4948V23.473V23.4511V23.4293V23.4075V23.3857V23.3639V23.342V23.3202V23.2984V23.2766V23.2548V23.2329V23.2111V23.1893V23.1675V23.1457V23.1239V23.102V23.0802V23.0584V23.0366V23.0148V22.993V22.9711V22.9493V22.9275V22.9057V22.8839V22.8621V22.8402V22.8184V22.7966V22.7748V22.753V22.7312V22.7094V22.6875V22.6657V22.6439V22.6221V22.6003V22.5785V22.5567V22.5349V22.513V22.4912V22.4694V22.4476V22.4258V22.404V22.3822V22.3604V22.3385V22.3167V22.2949V22.2731V22.2513V22.2295V22.2077V22.1859V22.164V22.1422V22.1204V22.0986V22.0768V22.055V22.0332V22.0114V21.9895V21.9677V21.9459V21.9241V21.9023V21.8805V21.8587V21.8369V21.815V21.7932V21.7714V21.7496V21.7278V21.706V21.6842V21.6623V21.6405V21.6187V21.5969V21.5751V21.5533V21.5315V21.5096V21.4878V21.466V21.4442V21.4224V21.4006V21.3787V21.3569V21.3351V21.3133V21.2915V21.2697V21.2478V21.226V21.2042V21.1824V21.1606V21.1388V21.1169V21.0951V21.0733V21.0515V21.0297V21.0078V20.986V20.9642V20.9424V20.9206V20.8987V20.8769V20.8551V20.8333V20.8114V20.7896V20.7678V20.746V20.7241V20.7023V20.6805V20.6587V20.6368V20.615V20.5932V20.5714V20.5495V20.5277V20.5059V20.4841V20.4622V20.4404V20.4186V20.3967V20.3749V20.3531V20.3312V20.3094V20.2876V20.2657V20.2439V20.2221V20.2002V20.1784V20.1566V20.1347V20.1129V20.0911V20.0692V20.0474V20.0255V20.0037V19.9819V19.96V19.9382V19.9163V19.8945V19.8727V19.8508V19.829V19.8071V19.7853V19.7634V19.7416V19.7197V19.6979V19.6761V19.6542V19.6324V19.6105V19.5887V19.5668V19.545V19.5231V19.5012V19.4794V19.4575V19.4357V19.4138V19.392V19.3701V19.3483V19.3264V19.3045V19.2827V19.2608V19.239V19.2171V19.1952V19.1734V19.1515V19.1296V19.1078V19.0859V19.064V19.0422V19.0203V18.9984V18.9766V18.9547V18.9328V18.9109V18.8891V18.8672V18.8453V18.8234V18.8016V18.7797V18.7578V18.7359V18.7141V18.6922V18.6703V18.6484V18.6265V18.6046V18.5828V18.5609V18.539V18.5171V18.4952V18.4733V18.4514V18.4295V18.4076V18.3857V18.3638V18.342V18.3201V18.2982V18.2763V18.2544V18.2325V18.2106V18.1887V18.1668V18.1448V18.1229V18.101V18.0791V18.0572V18.0353V18.0134V17.9915V17.9696V17.9477V17.9257V17.9038V17.8819V17.86V17.8381V17.8162V17.7942V17.7723V17.7504V17.7285V17.7065V17.6846V17.6627V17.6408V17.6188V17.5969V17.575V17.553V17.5311V17.5092V17.4872V17.4653V17.4434V17.4214V17.3995V17.3775V17.3556V17.3336V17.3117V17.2897V17.2678V17.2458V17.2239V17.2019V17.18V17.158V17.1361V17.1141V17.0922V17.0702V17.0482V17.0263V17.0043V16.9824V16.9604V16.9384V16.9164V16.8945V16.8725V16.8505V16.8286V16.8066V16.7846V16.7626V16.7407V16.7187V16.6967V16.6747V16.6527V16.6307V16.6087V16.5868V16.5648V16.5428V16.5208V16.4988V16.4768V16.4548V16.4328V16.4108V16.3888V16.3668V16.3448V16.3228V16.3008V16.2788V16.2568V16.2347V16.2127V16.1907V16.1687V16.1467V16.1247V16.1026V16.0806V16.0586V16.0366V16.0145V15.9925V15.9705V15.9485V15.9264V15.9044V15.8824V15.8603V15.8383V15.8162V15.7942V15.7722V15.7501V15.7281V15.706V15.684V15.6619V15.6399V15.6178V15.5958V15.5737V15.5714C11.3862 15.7132 13.1714 15.9067 14.9767 16.5188C14.8769 16.9684 14.7831 17.4156 14.6898 17.8605C14.4952 18.7885 14.3027 19.7065 14.0618 20.6162Z" fill="white" stroke="#003459" stroke-width="0.2"/>
</svg>
