<svg width="49" height="49" viewBox="0 0 49 49" fill="none" xmlns="http://www.w3.org/2000/svg">
<circle cx="24.5" cy="24.5" r="23.25" fill="#3AADFF" stroke="#003459" stroke-width="2.5"/>
<path d="M13.5 24L10 26L16 36L19 35L19.5 32.5H26L33.5 31L39 25.5C39.5 24 40.5 20.9 40.5 20.5C40.5 20.1 39.8333 20 39.5 20L35.5 22.5L30.5 24L23.5 22.5L20 22L15 25.5L13.5 24Z" fill="white"/>
<path d="M15.4471 24.0101C16.1487 23.4361 16.8503 22.9896 17.4882 22.4793C19.4017 21.0123 21.4428 20.7571 23.739 21.4588C25.1422 21.9052 26.4817 22.3517 27.9487 22.3517C28.6503 22.3517 29.2882 22.2242 29.9898 22.2242C30.7552 22.2242 31.5206 22.2242 32.286 22.2879C33.0514 22.3517 33.6892 22.7344 34.1995 23.3723C34.5822 22.862 34.9649 22.3517 35.3476 21.9052C36.113 21.1398 36.8146 20.3107 37.6438 19.609C38.4092 18.9712 39.366 18.6523 40.3865 18.9074C41.726 19.2263 42.2363 19.9917 41.8535 21.3312C41.5346 22.5431 40.8968 23.6274 40.259 24.6479C38.5368 27.1993 36.5595 29.5593 34.1357 31.4728C33.1152 32.2382 32.0946 32.876 30.819 33.0674C30.6276 33.0674 30.5 33.0674 30.3087 33.0674C27.2471 33.0674 24.2492 33.0674 21.1876 33.0674C20.9963 33.0674 20.8687 33.0674 20.7411 33.0674C20.7411 33.4501 20.8687 33.8328 20.8049 34.2155C20.7411 34.7258 20.4222 35.1085 19.9757 35.3636C19.019 35.9377 18.0622 36.5117 17.0417 37.022C16.1487 37.4685 15.192 37.2133 14.7455 36.3842C12.8957 33.195 11.1098 29.942 9.26007 26.7528C8.7498 25.8598 9.00493 24.9031 9.89791 24.4566C10.8547 23.8825 11.8114 23.3085 12.832 22.7982C13.6611 22.3517 14.6817 22.6069 15.192 23.4361C15.2557 23.6274 15.3195 23.8188 15.4471 24.0101ZM24.6319 26.3063C26.1628 26.3063 27.6936 26.3063 29.1606 26.3063C30.3725 26.3063 31.393 25.9874 32.286 25.222C32.4773 25.0944 32.7325 24.8393 32.6687 24.7755C32.5411 24.5204 32.3498 24.3928 32.0946 24.2015C31.9671 24.1377 31.7757 24.0739 31.5844 24.0739C30.9465 24.0739 30.3087 24.0739 29.6709 24.1377C28.3314 24.329 26.9919 24.329 25.7163 24.0101C24.6319 23.755 23.5476 23.3723 22.4633 23.1171C21.1876 22.7982 19.9757 22.9258 18.8914 23.755C18.126 24.329 17.3606 24.9031 16.5952 25.4771C16.3401 25.6685 16.2763 25.8598 16.4676 26.115C17.3606 27.6458 18.2536 29.2404 19.1465 30.7712C19.3379 31.0901 19.5292 31.2177 19.9119 31.2177C23.1649 31.2177 26.4817 31.2177 29.7346 31.2177C30.6276 31.2177 31.393 31.0263 32.0309 30.516C33.1152 29.6869 34.1357 28.8577 35.0925 27.9009C36.8784 26.115 38.3454 24.2015 39.4936 21.969C39.6849 21.5863 39.8125 21.2036 39.94 20.8209C39.4298 20.6934 38.9833 20.8209 38.6644 21.0761C38.1541 21.5225 37.58 21.969 37.1336 22.4793C36.1768 23.5636 35.3476 24.7117 34.3909 25.7961C33.3065 27.0717 31.9033 27.9009 30.2449 28.0923C28.7779 28.2198 27.3109 28.2198 25.7801 28.2198C25.3336 28.2198 24.8871 28.2198 24.3768 28.2198C24.6319 27.5182 24.6319 26.9442 24.6319 26.3063ZM10.9822 25.9874C12.7682 29.1128 14.4903 32.1744 16.2763 35.2998C17.1692 34.7896 17.9984 34.3431 18.8276 33.8328C17.0417 30.7074 15.3195 27.6458 13.5336 24.5204C12.7682 24.9669 12.0666 25.3496 11.3011 25.7961C11.2374 25.8598 11.1098 25.9236 10.9822 25.9874Z" fill="#003459"/>
<circle cx="29.0971" cy="16.6108" r="8.6108" fill="#003459"/>
<path d="M29.4458 18H28.4937L27.7173 15.9456H26.4502V18H25.5493V13.0012H27.7173C28.3203 13.0012 28.7634 13.1379 29.0466 13.4114C29.3298 13.6824 29.4714 14.0339 29.4714 14.4661C29.4714 15.1082 29.1711 15.55 28.5706 15.7917L29.4458 18ZM26.4502 15.2241H27.5708C27.8955 15.2241 28.1372 15.1558 28.2959 15.019C28.4546 14.8823 28.5339 14.6943 28.5339 14.4551C28.5339 14.2354 28.4558 14.0583 28.2996 13.9241C28.1433 13.7874 27.9248 13.719 27.644 13.719H26.4502V15.2241ZM31.1707 19.2488H30.321V14.3013H31.1194V14.9458C31.3757 14.4648 31.7529 14.2244 32.251 14.2244C32.6611 14.2244 32.9883 14.4026 33.2324 14.759C33.4766 15.1155 33.5986 15.5708 33.5986 16.125C33.5986 16.6499 33.4814 17.1064 33.2471 17.4946C33.0151 17.8828 32.6685 18.0769 32.207 18.0769C31.731 18.0769 31.3855 17.8792 31.1707 17.4836V19.2488ZM31.1707 16.4839C31.1707 16.7524 31.25 16.9758 31.4087 17.1541C31.5698 17.3298 31.748 17.4177 31.9434 17.4177C32.2095 17.4177 32.4036 17.3018 32.5256 17.0698C32.6501 16.8354 32.7124 16.5388 32.7124 16.1799C32.7124 15.804 32.6501 15.4988 32.5256 15.2644C32.4011 15.0276 32.2156 14.9092 31.969 14.9092C31.7468 14.9092 31.5576 15.0056 31.4014 15.1985C31.2476 15.3914 31.1707 15.644 31.1707 15.9565V16.4839Z" fill="white"/>
</svg>
