<svg width="90" height="90" viewBox="0 0 90 90" fill="none" xmlns="http://www.w3.org/2000/svg">
<path d="M26.6828 54.6846C26.2328 54.4116 25.6865 54.184 25.2043 53.7744C17.2656 47.1755 9.32684 40.6221 1.42023 33.9777C0.809556 33.4771 0.0703203 32.0663 0.166742 31.2926C0.263165 30.4734 1.22739 29.4722 1.93448 29.1992C16.8156 23.3284 31.7289 17.6397 46.6101 11.7689C49.117 10.7677 51.624 9.44793 53.8417 7.62754C55.4809 6.26225 56.7665 3.94125 57.9557 1.75678C59.1128 -0.336665 59.7556 -0.609724 61.1376 1.21067C62.6161 3.16758 64.191 5.03348 65.6373 7.03591C70.0728 13.0432 75.601 16.3199 81.1613 19.5056C83.5397 20.8709 85.9181 22.2362 88.2323 23.7835C88.9394 24.2841 89.4215 25.4674 90 26.332C89.3572 27.1057 88.8429 28.289 88.1037 28.6075C70.6834 36.0711 53.1989 43.4437 35.7465 50.9073C33.1431 51.9995 30.5076 53.0918 27.9042 54.2295C27.5828 54.3205 27.1971 54.4571 26.6828 54.6846ZM5.63066 32.2483C6.33776 32.8854 6.75559 33.2495 7.14127 33.6136C13.3444 38.7107 19.4833 43.8988 25.7186 48.9504C26.3936 49.4965 27.4542 49.6785 28.1934 49.36C46.1279 41.8054 64.0303 34.2052 81.9327 26.5596C82.4469 26.332 82.929 26.0135 83.8933 25.5129C74.7653 20.9164 66.4409 15.6373 60.077 5.5796C57.2486 10.6312 53.681 13.5893 49.567 15.1822C40.2783 18.7774 31.0218 22.3272 21.7332 25.9225C16.4942 27.9704 11.2553 30.0638 5.63066 32.2483Z" fill="#003459"/>
<path d="M26.5829 72.342C26.3579 72.2055 26.0365 72.0689 25.7794 71.8414C17.5192 65.0149 9.25906 58.1885 0.998897 51.3165C-0.25459 50.2698 -0.351013 47.9488 0.838193 47.3571C1.44887 47.0386 2.41309 47.4027 3.02376 47.9033C8.5841 52.4542 14.1123 57.0507 19.6405 61.6472C21.6332 63.2856 23.6259 64.8784 25.5865 66.6078C26.4865 67.4269 27.2578 67.518 28.2863 67.0629C47.8922 58.6891 67.498 50.4063 87.1038 42.078C87.4574 41.9415 87.9073 41.5319 88.1644 41.7139C88.8073 42.078 89.6108 42.4876 89.8358 43.2613C90.0286 43.8074 89.5465 45.0817 89.0965 45.6733C88.6787 46.2194 87.9395 46.3559 87.3288 46.5835C67.5301 55.0028 47.6993 63.4221 27.9007 71.8414C27.4828 71.9779 27.0971 72.16 26.5829 72.342Z" fill="#003459"/>
<path d="M26.5909 63.6046C26.3338 63.4226 25.9481 63.1951 25.5945 62.922C17.5272 56.2321 9.4599 49.4966 1.39259 42.7612C0.460506 41.9875 -0.375152 41.0773 0.299802 39.348C1.07118 37.4365 2.06754 38.2557 3.03176 39.0749C10.4563 45.2642 17.8808 51.408 25.3053 57.6429C26.398 58.5531 27.3623 58.7806 28.5836 58.2345C47.9002 49.9517 67.2489 41.7145 86.5976 33.4772C86.694 33.4317 86.7904 33.3862 86.8868 33.3407C88.0439 32.7945 89.3938 32.2939 89.8759 34.4329C90.4223 36.7539 88.9438 37.118 87.8189 37.5731C67.7631 46.1289 47.7073 54.6847 27.6515 63.2406C27.3623 63.2861 27.0409 63.4226 26.5909 63.6046Z" fill="#003459"/>
<path d="M26.5531 90C26.2317 89.7724 25.8139 89.4994 25.3961 89.1808C17.3609 82.4909 9.35787 75.801 1.3227 69.1565C0.358476 68.3374 -0.4129 67.4272 0.262054 65.7433C0.96915 63.9684 1.93337 64.56 2.89759 65.3337C10.3542 71.5685 17.843 77.7124 25.2997 83.9927C26.3924 84.9029 27.3567 85.1305 28.578 84.5843C48.0231 76.2561 67.4682 68.0188 86.9134 59.7815C87.3312 59.5995 87.7812 59.1899 88.1347 59.3264C88.7454 59.554 89.5489 59.9636 89.7739 60.6462C89.9667 61.2833 89.6132 62.4666 89.2596 63.1492C88.9704 63.6499 88.3276 63.8319 87.8133 64.0594C67.7896 72.5698 47.7981 81.0801 27.7745 89.5449C27.4209 89.6814 27.0674 89.818 26.5531 90Z" fill="#003459"/>
<path d="M26.5888 81.1253C26.2674 80.8978 25.8495 80.7157 25.496 80.3972C17.4608 73.7528 9.42565 67.1083 1.39048 60.4184C1.06907 60.1453 0.586961 59.9178 0.490539 59.5082C0.297695 58.6435 0.104851 57.5513 0.329836 56.8686C0.52268 56.3225 1.39048 56.0495 1.93687 56.0495C2.3547 56.0495 2.80467 56.5956 3.2225 56.9142C10.6791 63.058 18.1036 69.2018 25.5281 75.3911C26.4281 76.1193 27.1995 76.3468 28.1958 75.8917C47.6409 67.5634 67.1182 59.3262 86.5633 51.0889C87.7525 50.5883 89.2631 49.4506 89.8095 52.0446C90.3559 54.6842 88.6203 54.8207 87.4633 55.3213C67.6003 63.7861 47.7374 72.2054 27.8423 80.6247C27.5209 80.7157 27.103 80.8978 26.5888 81.1253Z" fill="#003459"/>
</svg>
