<svg width="115" height="115" viewBox="0 0 115 115" fill="none" xmlns="http://www.w3.org/2000/svg">
<path d="M99.8352 115H15.1648C6.82418 115 0 108.176 0 99.8352V15.1648C0 6.82418 6.82418 0 15.1648 0H99.8352C108.176 0 115 6.82418 115 15.1648V99.8352C115 108.176 108.176 115 99.8352 115Z" fill="#E1ECF4"/>
<path d="M48.1481 52.066C47.769 52.1923 47.5163 52.3187 47.3899 52.4451C39.5547 54.9726 31.7196 57.5 23.758 60.0275C22.747 60.4066 22.747 60.2802 22.6207 59.2693C21.7361 52.5715 20.8514 45.7473 19.8405 39.0495C19.7141 37.9121 19.4613 36.7748 19.335 35.6374C19.335 35.3846 19.335 35.1319 19.335 34.6264C22.3679 36.522 25.2745 38.2912 28.3075 40.0605C28.4339 39.8077 28.5602 39.555 28.6866 39.4286C32.6042 32.6044 38.0383 27.4231 45.2416 24.3901C53.835 20.7253 62.5547 21.2308 71.0218 24.8956C80.2471 29.066 86.1866 36.2693 89.2196 45.8737C89.4723 46.6319 89.346 46.6319 88.5877 46.6319C84.7965 46.6319 81.0053 46.6319 77.2141 46.6319C76.7086 46.6319 76.4558 46.3791 76.2031 46C72.6646 39.1759 66.8515 35.511 59.269 35.0055C50.2965 34.3737 43.8514 38.2912 39.302 45.7473C39.0492 46.2528 39.0492 46.5055 39.5547 46.7583C42.0822 48.2748 44.7361 49.9176 47.2635 51.4341C47.5163 51.6868 47.769 51.8132 48.1481 52.066Z" fill="#003459"/>
<path d="M75.9502 68.4945C72.9172 66.978 69.8842 65.5879 66.7249 64.0714C67.104 63.8187 67.2304 63.6923 67.4831 63.566C74.5601 59.9011 81.637 56.3627 88.5875 52.6978C89.093 52.4451 89.3458 52.4451 89.4721 53.0769C91.3677 61.1649 93.2633 69.1264 95.2853 77.2143C95.2853 77.467 95.2853 77.5934 95.4117 77.9725C95.0326 77.8462 94.7798 77.7198 94.5271 77.5934C92.2524 76.4561 90.104 75.4451 87.8293 74.3077C86.9447 73.8022 86.9447 73.8022 86.4392 74.8132C82.9007 81.511 77.8458 86.6923 71.0216 90.1044C59.648 95.6649 45.3677 93.6429 35.7633 85.3022C30.8348 81.0055 27.4227 75.6978 25.5271 69.5055C25.148 68.4945 25.2743 68.3681 26.4117 68.3681C30.0765 68.3681 33.615 68.3681 37.2798 68.3681C37.9117 68.3681 38.2908 68.6209 38.6699 69.2528C42.3348 75.9506 48.0216 79.6154 55.604 80.1209C64.4502 80.7528 70.8952 76.8352 75.4447 69.3791C75.571 69.2528 75.6974 69 75.6974 68.8736C75.9502 68.7473 75.9502 68.7473 75.9502 68.4945Z" fill="#003459"/>
</svg>
